# This file uses centimeters as units for non-parametric coordinates.

mtllib CornerCounter.mtl
g default
v -0.549327 -0.070025 0.497630
v 0.576022 -0.070025 0.497630
v -0.549327 0.056328 0.497630
v 0.576022 0.056328 0.497630
v -0.549327 0.056328 -0.496014
v 0.576022 0.056328 -0.496014
v -0.549327 -0.070025 -0.496014
v 0.576022 -0.070025 -0.496014
v 0.440953 -0.070025 0.497630
v 0.440953 0.056328 0.497630
v 0.440953 0.056328 -0.496014
v 0.440953 -0.070025 -0.496014
v -0.549327 -0.070025 0.582351
v 0.440953 -0.070025 0.582351
v 0.440953 0.056328 0.582351
v -0.549327 0.056328 0.582351
vt 0.375000 0.000000
vt 0.625000 0.000000
vt 0.375000 0.250000
vt 0.625000 0.250000
vt 0.375000 0.500000
vt 0.625000 0.500000
vt 0.375000 0.750000
vt 0.625000 0.750000
vt 0.375000 1.000000
vt 0.625000 1.000000
vt 0.875000 0.000000
vt 0.875000 0.250000
vt 0.125000 0.000000
vt 0.125000 0.250000
vt 0.594994 0.000000
vt 0.594994 1.000000
vt 0.594994 0.250000
vt 0.594994 0.500000
vt 0.594994 0.750000
vt 0.375000 0.000000
vt 0.594994 0.000000
vt 0.594994 0.250000
vt 0.375000 0.250000
vn 0.000000 0.000000 1.000000
vn 0.000000 0.000000 1.000000
vn 0.000000 0.000000 1.000000
vn 0.000000 0.000000 1.000000
vn 0.000000 1.000000 -0.000000
vn 0.000000 1.000000 -0.000000
vn 0.000000 1.000000 -0.000000
vn 0.000000 1.000000 -0.000000
vn 0.000000 0.000000 -1.000000
vn 0.000000 0.000000 -1.000000
vn 0.000000 0.000000 -1.000000
vn 0.000000 0.000000 -1.000000
vn 0.000000 -1.000000 0.000000
vn 0.000000 -1.000000 0.000000
vn 0.000000 -1.000000 0.000000
vn 0.000000 -1.000000 0.000000
vn 1.000000 0.000000 0.000000
vn 1.000000 0.000000 0.000000
vn 1.000000 0.000000 0.000000
vn 1.000000 0.000000 0.000000
vn -1.000000 0.000000 0.000000
vn -1.000000 0.000000 0.000000
vn -1.000000 0.000000 0.000000
vn -1.000000 0.000000 0.000000
vn 0.000000 0.000000 1.000000
vn 0.000000 0.000000 1.000000
vn 0.000000 0.000000 1.000000
vn 0.000000 0.000000 1.000000
vn 0.000000 1.000000 0.000000
vn 0.000000 1.000000 0.000000
vn 0.000000 0.000000 -1.000000
vn 0.000000 0.000000 -1.000000
vn 0.000000 -1.000000 0.000000
vn 0.000000 -1.000000 0.000000
vn 0.000000 -1.000000 0.000000
vn 0.000000 -1.000000 0.000000
vn 0.000000 -1.000000 0.000000
vn 0.000000 -1.000000 0.000000
vn 1.000000 0.000000 0.000000
vn 1.000000 0.000000 0.000000
vn 1.000000 0.000000 0.000000
vn 1.000000 0.000000 0.000000
vn 0.000000 1.000000 0.000000
vn 0.000000 1.000000 0.000000
vn 0.000000 1.000000 0.000000
vn 0.000000 1.000000 0.000000
vn -1.000000 0.000000 0.000000
vn -1.000000 0.000000 0.000000
vn -1.000000 0.000000 0.000000
vn -1.000000 0.000000 0.000000
s off
g Bottom CounterCorner
usemtl initialShadingGroup
f 13/20/1 14/21/2 15/22/3 16/23/4
s 1
f 3/3/5 10/17/6 11/18/7 5/5/8
s 2
f 5/5/9 11/18/10 12/19/11 7/7/12
s 3
f 7/7/13 12/19/14 9/16/15 1/9/16
s off
f 2/2/17 8/11/18 6/12/19 4/4/20
f 7/13/21 1/1/22 3/3/23 5/14/24
f 9/15/25 2/2/26 4/4/27 10/17/28
s 1
f 11/18/7 10/17/6 4/4/29 6/6/30
s 2
f 12/19/11 11/18/10 6/6/31 8/8/32
s 3
f 9/16/15 12/19/14 8/8/33 2/10/34
s off
f 1/1/35 9/15/36 14/21/37 13/20/38
f 9/15/39 10/17/40 15/22/41 14/21/42
f 10/17/43 3/3/44 16/23/45 15/22/46
f 3/3/47 1/1/48 13/20/49 16/23/50
g default
v -0.631249 1.187118 0.582350
v 0.576022 1.187118 0.582350
v -0.631249 1.283493 0.582350
v 0.576022 1.283493 0.582350
v -0.631249 1.283493 -0.576022
v 0.576022 1.283493 -0.576022
v -0.631249 1.187118 -0.576022
v 0.576022 1.187118 -0.576022
v 0.576022 1.283493 -0.480000
v -0.631249 1.283493 -0.480000
v -0.631249 1.187118 -0.480000
v 0.576022 1.187118 -0.480000
v -0.530000 1.283493 -0.480000
v -0.530000 1.283493 0.582350
v -0.530000 1.187118 0.582350
v -0.530000 1.187118 -0.480000
v -0.530000 1.187118 -0.576022
v -0.530000 1.283493 -0.576022
v -0.631249 1.385760 0.582350
v -0.530000 1.385760 0.582350
v -0.530000 1.385760 -0.480000
v -0.631249 1.385760 -0.480000
v -0.631249 1.385760 -0.576022
v -0.530000 1.385760 -0.576022
v 0.576022 1.385760 -0.480000
v 0.576022 1.385760 -0.576022
vt 0.375000 0.000000
vt 0.625000 0.000000
vt 0.375000 0.250000
vt 0.625000 0.250000
vt 0.375000 0.500000
vt 0.625000 0.500000
vt 0.375000 0.750000
vt 0.625000 0.750000
vt 0.375000 1.000000
vt 0.625000 1.000000
vt 0.875000 0.000000
vt 0.875000 0.250000
vt 0.125000 0.000000
vt 0.125000 0.250000
vt 0.625000 0.470076
vt 0.845076 0.250000
vt 0.154924 0.250000
vt 0.375000 0.470076
vt 0.154924 0.000000
vt 0.375000 0.779924
vt 0.625000 0.779924
vt 0.845076 0.000000
vt 0.405923 0.470076
vt 0.405923 0.250000
vt 0.405923 0.000000
vt 0.405923 1.000000
vt 0.405923 0.779924
vt 0.405923 0.750000
vt 0.405923 0.500000
vt 0.375000 0.250000
vt 0.405923 0.250000
vt 0.405923 0.470076
vt 0.375000 0.470076
vt 0.405923 0.500000
vt 0.125000 0.250000
vt 0.845076 0.250000
vt 0.625000 0.500000
vn 0.000000 0.000000 1.000000
vn 0.000000 0.000000 1.000000
vn 0.000000 0.000000 1.000000
vn 0.000000 0.000000 1.000000
vn 0.000000 1.000000 0.000000
vn 0.000000 1.000000 0.000000
vn 0.000000 1.000000 0.000000
vn 0.000000 1.000000 0.000000
vn 0.000000 0.000000 -1.000000
vn 0.000000 0.000000 -1.000000
vn 0.000000 0.000000 -1.000000
vn 0.000000 0.000000 -1.000000
vn 0.000000 -1.000000 0.000000
vn 0.000000 -1.000000 0.000000
vn 0.000000 -1.000000 0.000000
vn 0.000000 -1.000000 0.000000
vn 1.000000 0.000000 0.000000
vn 1.000000 0.000000 0.000000
vn 1.000000 0.000000 0.000000
vn 1.000000 0.000000 0.000000
vn -1.000000 0.000000 0.000000
vn -1.000000 0.000000 0.000000
vn -1.000000 0.000000 0.000000
vn -1.000000 0.000000 0.000000
vn -1.000000 0.000000 0.000000
vn -1.000000 0.000000 0.000000
vn 0.000000 -1.000000 0.000000
vn 0.000000 -1.000000 0.000000
vn 1.000000 0.000000 0.000000
vn 1.000000 0.000000 0.000000
vn -0.000000 1.000000 0.000000
vn -0.000000 1.000000 0.000000
vn -0.000000 1.000000 0.000000
vn -0.000000 1.000000 0.000000
vn 0.000001 0.000000 1.000000
vn 0.000001 0.000000 1.000000
vn 0.000000 -1.000000 0.000000
vn 0.000000 -1.000000 0.000000
vn 0.000000 -1.000000 0.000000
vn 0.000000 0.000000 -1.000000
vn 0.000000 0.000000 -1.000000
vn 0.000000 1.000000 0.000000
vn 0.000000 1.000000 0.000000
vn 0.000000 1.000000 0.000000
vn 0.000000 1.000000 0.000000
vn 0.000000 1.000000 0.000000
vn 0.000000 1.000000 0.000000
vn -0.000000 0.000000 1.000000
vn -0.000000 0.000000 1.000000
vn -0.000000 0.000000 1.000000
vn -0.000000 0.000000 1.000000
vn 1.000000 0.000000 0.000000
vn 1.000000 0.000000 0.000000
vn 1.000000 0.000000 0.000000
vn 1.000000 0.000000 0.000000
vn -1.000000 0.000000 0.000000
vn -1.000000 0.000000 0.000000
vn -1.000000 0.000000 0.000000
vn -1.000000 0.000000 0.000000
vn 0.000000 0.000000 -1.000000
vn 0.000000 0.000000 -1.000000
vn 0.000000 0.000000 -1.000000
vn 0.000000 0.000000 -1.000000
vn -1.000000 0.000000 0.000000
vn -1.000000 0.000000 0.000000
vn -1.000000 0.000000 0.000000
vn -1.000000 0.000000 0.000000
vn 0.000000 0.000000 1.000000
vn 0.000000 0.000000 1.000000
vn 0.000000 0.000000 1.000000
vn 0.000000 0.000000 1.000000
vn 1.000000 0.000000 0.000000
vn 1.000000 0.000000 0.000000
vn 1.000000 0.000000 0.000000
vn 1.000000 0.000000 0.000000
vn 0.000000 0.000000 -1.000000
vn 0.000000 0.000000 -1.000000
vn 0.000000 0.000000 -1.000000
vn 0.000000 0.000000 -1.000000
s 1
g CounterCorner Top
usemtl initialShadingGroup
f 31/48/51 18/25/52 20/27/53 30/47/54
s off
f 30/47/55 20/27/56 25/38/57 29/46/58
s 2
f 34/52/59 22/29/60 24/31/61 33/51/62
s 3
f 32/50/63 28/44/64 18/33/65 31/49/66
s 4
f 18/25/67 28/45/68 25/39/69 20/27/70
s 5
f 27/42/71 17/24/72 19/26/73 26/40/74
f 23/36/75 27/42/71 26/40/74 21/37/76
s 3
f 33/51/77 24/31/78 28/44/64 32/50/63
s 4
f 25/39/69 28/45/68 24/34/79 22/35/80
s off
f 35/53/81 36/54/82 37/55/83 38/56/84
s 1
f 17/24/85 31/48/51 30/47/54 19/26/86
s 3
f 27/43/87 32/50/63 31/49/66 17/32/88
f 23/30/89 33/51/77 32/50/63 27/43/87
s 2
f 21/28/90 34/52/59 33/51/62 23/30/91
s 6
f 40/57/92 39/58/93 38/56/94 37/55/95
f 40/57/92 37/55/95 41/59/96 42/60/97
s off
f 19/26/98 30/47/99 36/54/100 35/53/101
f 30/47/102 29/46/103 37/55/104 36/54/105
f 26/41/106 19/26/107 35/53/108 38/56/109
f 34/52/110 21/37/111 39/58/112 40/57/113
f 21/37/114 26/41/115 38/56/116 39/58/117
f 29/46/118 25/39/119 41/59/120 37/55/121
f 25/39/122 22/29/123 42/60/124 41/59/125
f 22/29/126 34/52/127 40/57/128 42/60/129
g default
v -0.631249 0.037046 0.582350
v 0.576022 0.037046 0.582350
v -0.631249 1.189091 0.582350
v 0.576022 1.189091 0.582350
v -0.631249 1.189091 -0.576022
v 0.576022 1.189091 -0.576022
v -0.631249 0.037046 -0.576022
v 0.576022 0.037046 -0.576022
vt 0.375000 0.000000
vt 0.625000 0.000000
vt 0.375000 0.250000
vt 0.625000 0.250000
vt 0.375000 0.500000
vt 0.625000 0.500000
vt 0.375000 0.750000
vt 0.625000 0.750000
vt 0.375000 1.000000
vt 0.625000 1.000000
vt 0.875000 0.000000
vt 0.875000 0.250000
vt 0.125000 0.000000
vt 0.125000 0.250000
vn 0.000000 0.000000 1.000000
vn 0.000000 0.000000 1.000000
vn 0.000000 0.000000 1.000000
vn 0.000000 0.000000 1.000000
vn 0.000000 1.000000 0.000000
vn 0.000000 1.000000 0.000000
vn 0.000000 1.000000 0.000000
vn 0.000000 1.000000 0.000000
vn 0.000000 0.000000 -1.000000
vn 0.000000 0.000000 -1.000000
vn 0.000000 0.000000 -1.000000
vn 0.000000 0.000000 -1.000000
vn 0.000000 -1.000000 0.000000
vn 0.000000 -1.000000 0.000000
vn 0.000000 -1.000000 0.000000
vn 0.000000 -1.000000 0.000000
vn 1.000000 0.000000 0.000000
vn 1.000000 0.000000 0.000000
vn 1.000000 0.000000 0.000000
vn 1.000000 0.000000 0.000000
vn -1.000000 0.000000 0.000000
vn -1.000000 0.000000 0.000000
vn -1.000000 0.000000 0.000000
vn -1.000000 0.000000 0.000000
s off
g CounterCorner Middle
usemtl initialShadingGroup
f 43/61/130 44/62/131 46/64/132 45/63/133
f 45/63/134 46/64/135 48/66/136 47/65/137
f 47/65/138 48/66/139 50/68/140 49/67/141
f 49/67/142 50/68/143 44/70/144 43/69/145
f 44/62/146 50/71/147 48/72/148 46/64/149
f 49/73/150 43/61/151 45/63/152 47/74/153
