# This file uses centimeters as units for non-parametric coordinates.

mtllib counter.mtl
g default
v 0.589346 1.187118 0.641152
v 1.741391 1.187118 0.641152
v 0.589346 1.283493 0.641152
v 1.741391 1.283493 0.641152
v 0.589346 1.283493 -0.576022
v 1.741391 1.283493 -0.576022
v 0.589346 1.187118 -0.576022
v 1.741391 1.187118 -0.576022
v 1.741391 1.283493 -0.475123
v 0.589346 1.283493 -0.475123
v 0.589346 1.187118 -0.475123
v 1.741391 1.187118 -0.475123
v 1.741391 1.385830 -0.475123
v 0.589346 1.385830 -0.475123
v 1.741391 1.385830 -0.576022
v 0.589346 1.385830 -0.576022
vt 0.375000 0.000000
vt 0.625000 0.000000
vt 0.375000 0.250000
vt 0.625000 0.250000
vt 0.375000 0.500000
vt 0.625000 0.500000
vt 0.375000 0.750000
vt 0.625000 0.750000
vt 0.375000 1.000000
vt 0.625000 1.000000
vt 0.875000 0.000000
vt 0.875000 0.250000
vt 0.125000 0.000000
vt 0.125000 0.250000
vt 0.625000 0.470076
vt 0.845076 0.250000
vt 0.154924 0.250000
vt 0.375000 0.470076
vt 0.154924 0.000000
vt 0.375000 0.779924
vt 0.625000 0.779924
vt 0.845076 0.000000
vt 0.375000 0.470076
vt 0.625000 0.470076
vt 0.625000 0.500000
vt 0.375000 0.500000
vn 0.000000 0.000000 1.000000
vn 0.000000 0.000000 1.000000
vn 0.000000 0.000000 1.000000
vn 0.000000 0.000000 1.000000
vn 0.000000 1.000000 0.000000
vn 0.000000 1.000000 0.000000
vn 0.000000 1.000000 0.000000
vn 0.000000 1.000000 0.000000
vn 0.000000 0.000000 -1.000000
vn 0.000000 0.000000 -1.000000
vn 0.000000 0.000000 -1.000000
vn 0.000000 0.000000 -1.000000
vn 0.000000 -1.000000 0.000000
vn 0.000000 -1.000000 0.000000
vn 0.000000 -1.000000 0.000000
vn 0.000000 -1.000000 0.000000
vn 1.000000 0.000000 0.000000
vn 1.000000 0.000000 0.000000
vn 1.000000 0.000000 0.000000
vn 1.000000 0.000000 0.000000
vn -1.000000 0.000000 0.000000
vn -1.000000 0.000000 0.000000
vn -1.000000 0.000000 0.000000
vn -1.000000 0.000000 0.000000
vn 0.000000 1.000000 0.000000
vn 0.000000 1.000000 0.000000
vn 0.000000 1.000000 0.000000
vn 0.000000 1.000000 0.000000
vn -1.000000 0.000000 0.000000
vn -1.000000 0.000000 0.000000
vn 0.000000 -1.000000 0.000000
vn 0.000000 -1.000000 0.000000
vn 1.000000 0.000000 0.000000
vn 1.000000 0.000000 0.000000
vn 0.000000 0.000000 1.000000
vn 0.000000 0.000000 1.000000
vn 0.000000 0.000000 1.000000
vn 0.000000 0.000000 1.000000
vn 1.000000 0.000000 0.000000
vn 1.000000 0.000000 0.000000
vn 1.000000 0.000000 0.000000
vn 1.000000 0.000000 0.000000
vn 0.000000 0.000000 -1.000000
vn 0.000000 0.000000 -1.000000
vn 0.000000 0.000000 -1.000000
vn 0.000000 0.000000 -1.000000
vn -1.000000 0.000000 0.000000
vn -1.000000 0.000000 0.000000
vn -1.000000 0.000000 0.000000
vn -1.000000 0.000000 0.000000
s off
g Top Counter
usemtl initialShadingGroup
f 1/1/1 2/2/2 4/4/3 3/3/4
f 3/3/5 4/4/6 9/15/7 10/18/8
f 5/5/9 6/6/10 8/8/11 7/7/12
s 1
f 11/20/13 12/21/14 2/10/15 1/9/16
s 2
f 2/2/17 12/22/18 9/16/19 4/4/20
s 3
f 11/19/21 1/1/22 3/3/23 10/17/24
s off
f 14/23/25 13/24/26 15/25/27 16/26/28
s 3
f 7/13/29 11/19/21 10/17/24 5/14/30
s 1
f 7/7/31 8/8/32 12/21/14 11/20/13
s 2
f 9/16/19 12/22/18 8/11/33 6/12/34
s off
f 10/18/35 9/15/36 13/24/37 14/23/38
f 9/15/39 6/6/40 15/25/41 13/24/42
f 6/6/43 5/5/44 16/26/45 15/25/46
f 5/5/47 10/18/48 14/23/49 16/26/50
g default
v 0.589346 0.037046 0.576023
v 1.741391 0.037046 0.576023
v 0.589346 1.189091 0.576023
v 1.741391 1.189091 0.576023
v 0.589346 1.189091 -0.576023
v 1.741391 1.189091 -0.576023
v 0.589346 0.037046 -0.576023
v 1.741391 0.037046 -0.576023
vt 0.375000 0.000000
vt 0.625000 0.000000
vt 0.375000 0.250000
vt 0.625000 0.250000
vt 0.375000 0.500000
vt 0.625000 0.500000
vt 0.375000 0.750000
vt 0.625000 0.750000
vt 0.375000 1.000000
vt 0.625000 1.000000
vt 0.875000 0.000000
vt 0.875000 0.250000
vt 0.125000 0.000000
vt 0.125000 0.250000
vn 0.000000 0.000000 1.000000
vn 0.000000 0.000000 1.000000
vn 0.000000 0.000000 1.000000
vn 0.000000 0.000000 1.000000
vn 0.000000 1.000000 0.000000
vn 0.000000 1.000000 0.000000
vn 0.000000 1.000000 0.000000
vn 0.000000 1.000000 0.000000
vn 0.000000 0.000000 -1.000000
vn 0.000000 0.000000 -1.000000
vn 0.000000 0.000000 -1.000000
vn 0.000000 0.000000 -1.000000
vn 0.000000 -1.000000 0.000000
vn 0.000000 -1.000000 0.000000
vn 0.000000 -1.000000 0.000000
vn 0.000000 -1.000000 0.000000
vn 1.000000 0.000000 0.000000
vn 1.000000 0.000000 0.000000
vn 1.000000 0.000000 0.000000
vn 1.000000 0.000000 0.000000
vn -1.000000 0.000000 0.000000
vn -1.000000 0.000000 0.000000
vn -1.000000 0.000000 0.000000
vn -1.000000 0.000000 0.000000
s off
g Counter Middle
usemtl initialShadingGroup
f 17/27/51 18/28/52 20/30/53 19/29/54
f 19/29/55 20/30/56 22/32/57 21/31/58
f 21/31/59 22/32/60 24/34/61 23/33/62
f 23/33/63 24/34/64 18/36/65 17/35/66
f 18/28/67 24/37/68 22/38/69 20/30/70
f 23/39/71 17/27/72 19/29/73 21/40/74
g default
v 0.589346 -0.070025 0.496014
v 1.741391 -0.070025 0.496014
v 0.589346 0.056328 0.496014
v 1.741391 0.056328 0.496014
v 0.589346 0.056328 -0.496014
v 1.741391 0.056328 -0.496014
v 0.589346 -0.070025 -0.496014
v 1.741391 -0.070025 -0.496014
vt 0.375000 0.000000
vt 0.625000 0.000000
vt 0.375000 0.250000
vt 0.625000 0.250000
vt 0.375000 0.500000
vt 0.625000 0.500000
vt 0.375000 0.750000
vt 0.625000 0.750000
vt 0.375000 1.000000
vt 0.625000 1.000000
vt 0.875000 0.000000
vt 0.875000 0.250000
vt 0.125000 0.000000
vt 0.125000 0.250000
vn 0.000000 0.000000 1.000000
vn 0.000000 0.000000 1.000000
vn 0.000000 0.000000 1.000000
vn 0.000000 0.000000 1.000000
vn 0.000000 1.000000 0.000000
vn 0.000000 1.000000 0.000000
vn 0.000000 1.000000 0.000000
vn 0.000000 1.000000 0.000000
vn 0.000000 0.000000 -1.000000
vn 0.000000 0.000000 -1.000000
vn 0.000000 0.000000 -1.000000
vn 0.000000 0.000000 -1.000000
vn 0.000000 -1.000000 0.000000
vn 0.000000 -1.000000 0.000000
vn 0.000000 -1.000000 0.000000
vn 0.000000 -1.000000 0.000000
vn 1.000000 0.000000 0.000000
vn 1.000000 0.000000 0.000000
vn 1.000000 0.000000 0.000000
vn 1.000000 0.000000 0.000000
vn -1.000000 0.000000 0.000000
vn -1.000000 0.000000 0.000000
vn -1.000000 0.000000 0.000000
vn -1.000000 0.000000 0.000000
s off
g Counter Bottom
usemtl initialShadingGroup
f 25/41/75 26/42/76 28/44/77 27/43/78
f 27/43/79 28/44/80 30/46/81 29/45/82
f 29/45/83 30/46/84 32/48/85 31/47/86
f 31/47/87 32/48/88 26/50/89 25/49/90
f 26/42/91 32/51/92 30/52/93 28/44/94
f 31/53/95 25/41/96 27/43/97 29/54/98
