# This file uses centimeters as units for non-parametric coordinates.

mtllib knob.mtl
g default
v 2.748900 1.357852 0.388950
v 2.753123 1.357852 0.388950
v 2.749546 1.359211 0.387829
v 2.752478 1.359211 0.387829
v 2.749546 1.359211 0.382743
v 2.752478 1.359211 0.382743
v 2.748900 1.357852 0.381622
v 2.753123 1.357852 0.381622
vt 0.375000 0.000000
vt 0.625000 0.000000
vt 0.375000 0.250000
vt 0.625000 0.250000
vt 0.375000 0.500000
vt 0.625000 0.500000
vt 0.375000 0.750000
vt 0.625000 0.750000
vt 0.375000 1.000000
vt 0.625000 1.000000
vt 0.875000 0.000000
vt 0.875000 0.250000
vt 0.125000 0.000000
vt 0.125000 0.250000
vn 0.000000 0.636059 0.771640
vn 0.000000 0.636059 0.771640
vn 0.000000 0.636059 0.771640
vn 0.000000 0.636059 0.771640
vn 0.000000 1.000000 0.000000
vn 0.000000 1.000000 0.000000
vn 0.000000 1.000000 0.000000
vn 0.000000 1.000000 0.000000
vn 0.000000 0.636059 -0.771640
vn 0.000000 0.636059 -0.771640
vn 0.000000 0.636059 -0.771640
vn 0.000000 0.636059 -0.771640
vn 0.000000 -1.000000 0.000000
vn 0.000000 -1.000000 0.000000
vn 0.000000 -1.000000 0.000000
vn 0.000000 -1.000000 0.000000
vn 0.903253 0.429109 0.000000
vn 0.903253 0.429109 0.000000
vn 0.903253 0.429109 0.000000
vn 0.903253 0.429109 0.000000
vn -0.903253 0.429109 0.000000
vn -0.903253 0.429109 0.000000
vn -0.903253 0.429109 0.000000
vn -0.903253 0.429109 0.000000
s off
g pCube3 Knob
usemtl initialShadingGroup
f 1/1/1 2/2/2 4/4/3 3/3/4
f 3/3/5 4/4/6 6/6/7 5/5/8
f 5/5/9 6/6/10 8/8/11 7/7/12
f 7/7/13 8/8/14 2/10/15 1/9/16
f 2/2/17 8/11/18 6/12/19 4/4/20
f 7/13/21 1/1/22 3/3/23 5/14/24
g default
v 2.742154 1.333654 0.437693
v 2.759869 1.333654 0.437693
v 2.744863 1.358553 0.427191
v 2.757160 1.358553 0.427191
v 2.744863 1.358553 0.379522
v 2.757160 1.358553 0.379522
v 2.742154 1.333654 0.369019
v 2.759869 1.333654 0.369019
v 2.775136 1.310786 0.360020
v 2.726710 1.310786 0.360020
v 2.702497 1.310786 0.403356
v 2.726710 1.310786 0.446691
v 2.775136 1.310786 0.446691
v 2.799350 1.310786 0.403356
v 2.768941 1.340318 0.371109
v 2.732906 1.340318 0.371109
v 2.714888 1.340318 0.403356
v 2.732906 1.340318 0.435602
v 2.768941 1.340318 0.435602
v 2.786958 1.340318 0.403356
v 2.750923 1.310786 0.403356
v 2.750923 1.340318 0.403356
vt 0.375000 0.000000
vt 0.625000 0.000000
vt 0.375000 0.250000
vt 0.625000 0.250000
vt 0.375000 0.500000
vt 0.625000 0.500000
vt 0.375000 0.750000
vt 0.625000 0.750000
vt 0.375000 1.000000
vt 0.625000 1.000000
vt 0.875000 0.000000
vt 0.875000 0.250000
vt 0.125000 0.000000
vt 0.125000 0.250000
vt 0.375000 0.312500
vt 0.416667 0.312500
vt 0.416667 0.687500
vt 0.375000 0.687500
vt 0.458333 0.312500
vt 0.458333 0.687500
vt 0.500000 0.312500
vt 0.500000 0.687500
vt 0.541667 0.312500
vt 0.541667 0.687500
vt 0.583333 0.312500
vt 0.583333 0.687500
vt 0.625000 0.312500
vt 0.625000 0.687500
vt 0.421875 0.020934
vt 0.578125 0.020934
vt 0.500000 0.156250
vt 0.343750 0.156250
vt 0.421875 0.291566
vt 0.578125 0.291566
vt 0.656250 0.156250
vt 0.578125 0.979066
vt 0.421875 0.979066
vt 0.500000 0.843750
vt 0.343750 0.843750
vt 0.421875 0.708434
vt 0.578125 0.708434
vt 0.656250 0.843750
vn 0.000000 0.388645 0.921388
vn 0.000000 0.388645 0.921388
vn 0.000000 0.388645 0.921388
vn 0.000000 0.388645 0.921388
vn 0.000000 1.000000 0.000000
vn 0.000000 1.000000 0.000000
vn 0.000000 1.000000 0.000000
vn 0.000000 1.000000 0.000000
vn 0.000000 0.388645 -0.921388
vn 0.000000 0.388645 -0.921388
vn 0.000000 0.388645 -0.921388
vn 0.000000 0.388645 -0.921388
vn 0.000000 -1.000000 0.000000
vn 0.000000 -1.000000 0.000000
vn 0.000000 -1.000000 0.000000
vn 0.000000 -1.000000 0.000000
vn 0.994133 0.108170 0.000000
vn 0.994133 0.108170 0.000000
vn 0.994132 0.108170 0.000000
vn 0.994132 0.108170 0.000000
vn -0.994133 0.108168 0.000000
vn -0.994133 0.108168 0.000000
vn -0.994133 0.108168 0.000000
vn -0.994133 0.108168 0.000000
vn 0.000000 0.351513 -0.936183
vn 0.000000 0.351513 -0.936183
vn 0.000000 0.351513 -0.936183
vn 0.000000 0.351513 -0.936183
vn -0.819715 0.343937 -0.458011
vn -0.819715 0.343937 -0.458011
vn -0.819715 0.343937 -0.458011
vn -0.819715 0.343937 -0.458011
vn -0.819715 0.343938 0.458010
vn -0.819716 0.343938 0.458010
vn -0.819716 0.343938 0.458010
vn -0.819716 0.343938 0.458010
vn 0.000000 0.351512 0.936183
vn 0.000000 0.351512 0.936183
vn 0.000000 0.351512 0.936183
vn 0.000000 0.351512 0.936183
vn 0.819715 0.343942 0.458007
vn 0.819715 0.343942 0.458007
vn 0.819715 0.343942 0.458007
vn 0.819715 0.343942 0.458007
vn 0.819717 0.343939 -0.458007
vn 0.819717 0.343939 -0.458007
vn 0.819717 0.343939 -0.458007
vn 0.819717 0.343939 -0.458007
vn 0.000000 -1.000000 0.000000
vn 0.000000 -1.000000 0.000000
vn 0.000000 -1.000000 0.000000
vn 0.000000 -1.000000 0.000000
vn 0.000000 -1.000000 0.000000
vn 0.000000 -1.000000 0.000000
vn 0.000000 -1.000000 0.000000
vn 0.000000 1.000000 0.000000
vn 0.000000 1.000000 0.000000
vn 0.000000 1.000000 0.000000
vn 0.000000 1.000000 0.000000
vn 0.000000 1.000000 0.000000
vn 0.000000 1.000000 0.000000
vn 0.000000 1.000000 0.000000
s off
g Knob pCube4
usemtl initialShadingGroup
f 9/15/25 10/16/26 12/18/27 11/17/28
f 11/17/29 12/18/30 14/20/31 13/19/32
f 13/19/33 14/20/34 16/22/35 15/21/36
f 15/21/37 16/22/38 10/24/39 9/23/40
f 10/16/41 16/25/42 14/26/43 12/18/44
f 15/27/45 9/15/46 11/17/47 13/28/48
f 17/29/49 18/30/50 24/31/51 23/32/52
f 18/30/53 19/33/54 25/34/55 24/31/56
f 19/33/57 20/35/58 26/36/59 25/34/60
f 20/35/61 21/37/62 27/38/63 26/36/64
f 21/37/65 22/39/66 28/40/67 27/38/68
f 22/39/69 17/41/70 23/42/71 28/40/72
s 1
f 18/43/73 17/44/74 29/45/75
f 19/46/76 18/43/73 29/45/75
f 20/47/77 19/46/76 29/45/75
f 21/48/78 20/47/77 29/45/75
f 22/49/79 21/48/78 29/45/75
f 17/44/74 22/49/79 29/45/75
s 2
f 23/50/80 24/51/81 30/52/82
f 24/51/81 25/53/83 30/52/82
f 25/53/83 26/54/84 30/52/82
f 26/54/84 27/55/85 30/52/82
f 27/55/85 28/56/86 30/52/82
f 28/56/86 23/50/80 30/52/82
