# This file uses centimeters as units for non-parametric coordinates.

mtllib pan.mtl
g default
v 2.755076 1.535623 0.041956
v 2.701251 1.535623 -0.011870
v 2.627724 1.535623 -0.031571
v 2.554198 1.535623 -0.011870
v 2.500372 1.535623 0.041956
v 2.480671 1.535623 0.115482
v 2.500372 1.535623 0.189009
v 2.554198 1.535623 0.242834
v 2.627724 1.535623 0.262535
v 2.701251 1.535623 0.242834
v 2.755076 1.535623 0.189009
v 2.774777 1.535623 0.115482
v 2.757143 1.551291 0.040762
v 2.702444 1.551291 -0.013937
v 2.627724 1.551291 -0.033958
v 2.553004 1.551291 -0.013937
v 2.498305 1.551291 0.040762
v 2.478284 1.551291 0.115482
v 2.498305 1.551291 0.190202
v 2.553004 1.551291 0.244901
v 2.627724 1.551291 0.264923
v 2.702444 1.551291 0.244901
v 2.757143 1.551291 0.190202
v 2.777165 1.551291 0.115482
v 2.627724 1.535623 0.115482
v 2.627724 1.551291 0.115482
v 2.766435 1.534924 0.035397
v 2.707809 1.534924 -0.023229
v 2.707809 1.541924 -0.023229
v 2.766435 1.541924 0.035397
v 2.627724 1.534924 -0.044687
v 2.627724 1.541924 -0.044687
v 2.547639 1.534924 -0.023229
v 2.547639 1.541924 -0.023229
v 2.489013 1.534924 0.035397
v 2.489013 1.541924 0.035397
v 2.467554 1.534924 0.115482
v 2.467554 1.541924 0.115482
v 2.489013 1.534924 0.195567
v 2.489013 1.541924 0.195567
v 2.547639 1.534924 0.254193
v 2.547639 1.541924 0.254193
v 2.627724 1.534924 0.275652
v 2.627724 1.541924 0.275652
v 2.707809 1.534924 0.254193
v 2.707809 1.541924 0.254193
v 2.766435 1.534924 0.195567
v 2.766435 1.541924 0.195567
v 2.787893 1.534924 0.115482
v 2.787893 1.541924 0.115482
v 2.783018 1.609761 0.025823
v 2.717383 1.609761 -0.039812
v 2.793116 1.610594 0.019993
v 2.723213 1.610594 -0.049910
v 2.627724 1.609761 -0.063836
v 2.627724 1.610594 -0.075496
v 2.538065 1.609761 -0.039812
v 2.532235 1.610594 -0.049910
v 2.472430 1.609761 0.025823
v 2.462332 1.610594 0.019993
v 2.448406 1.609761 0.115482
v 2.436746 1.610594 0.115482
v 2.472430 1.609761 0.205141
v 2.462332 1.610594 0.210971
v 2.538065 1.609761 0.270776
v 2.532235 1.610594 0.280874
v 2.627724 1.609761 0.294800
v 2.627724 1.610594 0.306460
v 2.717383 1.609761 0.270776
v 2.723213 1.610594 0.280874
v 2.783018 1.609761 0.205141
v 2.793116 1.610594 0.210971
v 2.807042 1.609761 0.115482
v 2.818702 1.610594 0.115482
vt 0.635316 0.078125
vt 0.578125 0.020934
vt 0.500000 0.000000
vt 0.421875 0.020934
vt 0.364684 0.078125
vt 0.343750 0.156250
vt 0.364684 0.234375
vt 0.421875 0.291566
vt 0.500000 0.312500
vt 0.578125 0.291566
vt 0.635316 0.234375
vt 0.656250 0.156250
vt 0.375000 0.312500
vt 0.395833 0.312500
vt 0.416667 0.312500
vt 0.437500 0.312500
vt 0.458333 0.312500
vt 0.479167 0.312500
vt 0.500000 0.312500
vt 0.520833 0.312500
vt 0.541667 0.312500
vt 0.562500 0.312500
vt 0.583333 0.312500
vt 0.604167 0.312500
vt 0.625000 0.312500
vt 0.375000 0.687500
vt 0.395833 0.687500
vt 0.416667 0.687500
vt 0.437500 0.687500
vt 0.458333 0.687500
vt 0.479167 0.687500
vt 0.500000 0.687500
vt 0.520833 0.687500
vt 0.541667 0.687500
vt 0.562500 0.687500
vt 0.583333 0.687500
vt 0.604167 0.687500
vt 0.625000 0.687500
vt 0.635316 0.765625
vt 0.578125 0.708434
vt 0.500000 0.687500
vt 0.421875 0.708434
vt 0.364684 0.765625
vt 0.343750 0.843750
vt 0.364684 0.921875
vt 0.421875 0.979066
vt 0.500000 1.000000
vt 0.578125 0.979066
vt 0.635316 0.921875
vt 0.656250 0.843750
vt 0.500000 0.156250
vt 0.500000 0.843750
vt 0.375000 0.312500
vt 0.395833 0.312500
vt 0.395833 0.687500
vt 0.375000 0.687500
vt 0.416667 0.312500
vt 0.416667 0.687500
vt 0.437500 0.312500
vt 0.437500 0.687500
vt 0.458333 0.312500
vt 0.458333 0.687500
vt 0.479167 0.312500
vt 0.479167 0.687500
vt 0.500000 0.312500
vt 0.500000 0.687500
vt 0.520833 0.312500
vt 0.520833 0.687500
vt 0.541667 0.312500
vt 0.541667 0.687500
vt 0.562500 0.312500
vt 0.562500 0.687500
vt 0.583333 0.312500
vt 0.583333 0.687500
vt 0.604167 0.312500
vt 0.604167 0.687500
vt 0.625000 0.312500
vt 0.625000 0.687500
vt 0.395833 0.687500
vt 0.375000 0.687500
vt 0.375000 0.687500
vt 0.395833 0.687500
vt 0.416667 0.687500
vt 0.416667 0.687500
vt 0.437500 0.687500
vt 0.437500 0.687500
vt 0.458333 0.687500
vt 0.458333 0.687500
vt 0.479167 0.687500
vt 0.479167 0.687500
vt 0.500000 0.687500
vt 0.500000 0.687500
vt 0.520833 0.687500
vt 0.520833 0.687500
vt 0.541667 0.687500
vt 0.541667 0.687500
vt 0.562500 0.687500
vt 0.562500 0.687500
vt 0.583333 0.687500
vt 0.583333 0.687500
vt 0.604167 0.687500
vt 0.604167 0.687500
vt 0.625000 0.687500
vt 0.625000 0.687500
vn 0.707107 0.000000 -0.707106
vn 0.707107 0.000000 -0.707106
vn 0.707107 0.000000 -0.707106
vn 0.707107 0.000000 -0.707106
vn 0.258820 0.000000 -0.965926
vn 0.258820 0.000000 -0.965926
vn 0.258820 0.000000 -0.965926
vn 0.258820 0.000000 -0.965926
vn -0.258819 0.000000 -0.965926
vn -0.258819 0.000000 -0.965926
vn -0.258819 0.000000 -0.965926
vn -0.258819 0.000000 -0.965926
vn -0.707107 0.000000 -0.707106
vn -0.707107 0.000000 -0.707106
vn -0.707107 0.000000 -0.707106
vn -0.707107 0.000000 -0.707106
vn -0.965925 0.000000 -0.258821
vn -0.965925 0.000000 -0.258821
vn -0.965925 0.000000 -0.258821
vn -0.965925 0.000000 -0.258821
vn -0.965925 0.000000 0.258821
vn -0.965925 0.000000 0.258821
vn -0.965925 0.000000 0.258821
vn -0.965925 0.000000 0.258821
vn -0.707107 0.000000 0.707107
vn -0.707107 0.000000 0.707107
vn -0.707107 0.000000 0.707107
vn -0.707107 0.000000 0.707107
vn -0.258819 0.000000 0.965926
vn -0.258819 0.000000 0.965926
vn -0.258819 0.000000 0.965926
vn -0.258819 0.000000 0.965926
vn 0.258820 0.000000 0.965926
vn 0.258820 0.000000 0.965926
vn 0.258820 0.000000 0.965926
vn 0.258820 0.000000 0.965926
vn 0.707107 0.000000 0.707107
vn 0.707107 0.000000 0.707107
vn 0.707107 0.000000 0.707107
vn 0.707107 0.000000 0.707107
vn 0.965926 0.000000 0.258818
vn 0.965926 0.000000 0.258818
vn 0.965926 0.000000 0.258818
vn 0.965926 0.000000 0.258818
vn 0.965926 0.000000 -0.258818
vn 0.965926 0.000000 -0.258818
vn 0.965926 0.000000 -0.258818
vn 0.965926 0.000000 -0.258818
vn 0.000000 -1.000000 0.000000
vn 0.000000 -1.000000 0.000000
vn 0.000000 -1.000000 -0.000000
vn 0.000000 -1.000000 0.000000
vn 0.000000 -1.000000 -0.000000
vn 0.000000 -1.000000 -0.000000
vn 0.000000 -1.000000 0.000000
vn 0.000000 -1.000000 0.000000
vn 0.000000 -1.000000 0.000000
vn 0.000000 -1.000000 0.000000
vn 0.000000 -1.000000 -0.000000
vn 0.000000 -1.000000 -0.000000
vn 0.000000 -1.000000 0.000000
vn 0.000000 1.000000 -0.000000
vn 0.000000 1.000000 -0.000000
vn 0.000000 1.000000 -0.000000
vn 0.000000 1.000000 0.000000
vn 0.000000 1.000000 -0.000000
vn 0.000000 1.000000 -0.000000
vn 0.000000 1.000000 -0.000000
vn 0.000000 1.000000 -0.000000
vn 0.000000 1.000000 0.000000
vn 0.000000 1.000000 0.000000
vn 0.000000 1.000000 0.000000
vn 0.000000 1.000000 -0.000000
vn 0.000000 1.000000 0.000000
vn -0.038944 -0.998482 0.038944
vn -0.038944 -0.998482 0.038944
vn -0.038944 -0.998482 0.038944
vn -0.038944 -0.998482 0.038944
vn -0.052154 0.997276 0.052154
vn -0.052154 0.997276 0.052154
vn -0.052154 0.997276 0.052154
vn -0.052154 0.997276 0.052154
vn -0.014254 -0.998482 0.053198
vn -0.014254 -0.998482 0.053198
vn -0.014254 -0.998482 0.053198
vn -0.014254 -0.998482 0.053198
vn -0.019090 0.997276 0.071243
vn -0.019090 0.997276 0.071243
vn -0.019090 0.997276 0.071243
vn -0.019090 0.997276 0.071243
vn 0.014254 -0.998482 0.053198
vn 0.014254 -0.998482 0.053198
vn 0.014254 -0.998482 0.053198
vn 0.014254 -0.998482 0.053198
vn 0.019089 0.997276 0.071243
vn 0.019089 0.997276 0.071243
vn 0.019089 0.997276 0.071243
vn 0.019089 0.997276 0.071243
vn 0.038944 -0.998482 0.038944
vn 0.038944 -0.998482 0.038944
vn 0.038944 -0.998482 0.038944
vn 0.038944 -0.998482 0.038944
vn 0.052153 0.997276 0.052153
vn 0.052153 0.997276 0.052153
vn 0.052153 0.997276 0.052153
vn 0.052153 0.997276 0.052153
vn 0.053198 -0.998482 0.014254
vn 0.053198 -0.998482 0.014254
vn 0.053198 -0.998482 0.014254
vn 0.053198 -0.998482 0.014254
vn 0.071242 0.997276 0.019089
vn 0.071242 0.997276 0.019089
vn 0.071242 0.997276 0.019089
vn 0.071242 0.997276 0.019089
vn 0.053198 -0.998482 -0.014254
vn 0.053198 -0.998482 -0.014254
vn 0.053198 -0.998482 -0.014254
vn 0.053198 -0.998482 -0.014254
vn 0.071242 0.997276 -0.019089
vn 0.071242 0.997276 -0.019089
vn 0.071242 0.997276 -0.019089
vn 0.071242 0.997276 -0.019089
vn 0.038944 -0.998482 -0.038944
vn 0.038944 -0.998482 -0.038944
vn 0.038944 -0.998482 -0.038944
vn 0.038944 -0.998482 -0.038944
vn 0.052153 0.997276 -0.052153
vn 0.052153 0.997276 -0.052153
vn 0.052153 0.997276 -0.052153
vn 0.052153 0.997276 -0.052153
vn 0.014254 -0.998482 -0.053198
vn 0.014254 -0.998482 -0.053198
vn 0.014254 -0.998482 -0.053198
vn 0.014254 -0.998482 -0.053198
vn 0.019089 0.997276 -0.071243
vn 0.019089 0.997276 -0.071243
vn 0.019089 0.997276 -0.071243
vn 0.019089 0.997276 -0.071243
vn -0.014254 -0.998482 -0.053198
vn -0.014254 -0.998482 -0.053198
vn -0.014254 -0.998482 -0.053198
vn -0.014254 -0.998482 -0.053198
vn -0.019090 0.997276 -0.071243
vn -0.019090 0.997276 -0.071243
vn -0.019090 0.997276 -0.071243
vn -0.019090 0.997276 -0.071243
vn -0.038944 -0.998482 -0.038944
vn -0.038944 -0.998482 -0.038944
vn -0.038944 -0.998482 -0.038944
vn -0.038944 -0.998482 -0.038944
vn -0.052154 0.997276 -0.052154
vn -0.052154 0.997276 -0.052154
vn -0.052154 0.997276 -0.052154
vn -0.052154 0.997276 -0.052154
vn -0.053199 -0.998482 -0.014255
vn -0.053199 -0.998482 -0.014255
vn -0.053199 -0.998482 -0.014255
vn -0.053199 -0.998482 -0.014255
vn -0.071244 0.997276 -0.019090
vn -0.071244 0.997276 -0.019090
vn -0.071244 0.997276 -0.019090
vn -0.071244 0.997276 -0.019090
vn -0.053199 -0.998482 0.014255
vn -0.053199 -0.998482 0.014255
vn -0.053199 -0.998482 0.014255
vn -0.053199 -0.998482 0.014255
vn -0.071244 0.997276 0.019090
vn -0.071244 0.997276 0.019090
vn -0.071244 0.997276 0.019090
vn -0.071244 0.997276 0.019090
vn -0.634077 0.442601 0.634075
vn -0.634077 0.442601 0.634075
vn -0.634077 0.442601 0.634075
vn -0.634077 0.442601 0.634075
vn 0.648803 -0.397631 -0.648803
vn 0.648803 -0.397631 -0.648803
vn 0.648803 -0.397631 -0.648803
vn 0.648803 -0.397631 -0.648803
vn -0.232088 0.442601 0.866164
vn -0.232088 0.442601 0.866164
vn -0.232088 0.442601 0.866164
vn -0.232088 0.442601 0.866164
vn 0.237479 -0.397631 -0.886281
vn 0.237479 -0.397631 -0.886281
vn 0.237479 -0.397631 -0.886281
vn 0.237479 -0.397631 -0.886281
vn 0.232088 0.442600 0.866164
vn 0.232088 0.442600 0.866164
vn 0.232088 0.442601 0.866164
vn 0.232088 0.442601 0.866164
vn -0.237478 -0.397631 -0.886281
vn -0.237478 -0.397631 -0.886281
vn -0.237478 -0.397631 -0.886281
vn -0.237478 -0.397631 -0.886281
vn 0.634076 0.442600 0.634077
vn 0.634076 0.442600 0.634077
vn 0.634076 0.442600 0.634077
vn 0.634076 0.442600 0.634077
vn -0.648803 -0.397630 -0.648803
vn -0.648803 -0.397630 -0.648803
vn -0.648803 -0.397630 -0.648803
vn -0.648803 -0.397630 -0.648803
vn 0.866164 0.442600 0.232087
vn 0.866164 0.442600 0.232087
vn 0.866164 0.442600 0.232087
vn 0.866164 0.442600 0.232087
vn -0.886281 -0.397630 -0.237480
vn -0.886281 -0.397630 -0.237480
vn -0.886281 -0.397630 -0.237480
vn -0.886281 -0.397630 -0.237480
vn 0.866164 0.442600 -0.232087
vn 0.866164 0.442600 -0.232087
vn 0.866164 0.442600 -0.232087
vn 0.866164 0.442600 -0.232087
vn -0.886281 -0.397630 0.237480
vn -0.886281 -0.397630 0.237480
vn -0.886281 -0.397630 0.237480
vn -0.886281 -0.397630 0.237480
vn 0.634076 0.442600 -0.634077
vn 0.634076 0.442600 -0.634077
vn 0.634076 0.442600 -0.634077
vn 0.634076 0.442600 -0.634077
vn -0.648803 -0.397630 0.648803
vn -0.648803 -0.397630 0.648803
vn -0.648803 -0.397630 0.648803
vn -0.648803 -0.397630 0.648803
vn 0.232088 0.442600 -0.866164
vn 0.232088 0.442600 -0.866164
vn 0.232088 0.442600 -0.866164
vn 0.232088 0.442600 -0.866164
vn -0.237478 -0.397630 0.886281
vn -0.237479 -0.397630 0.886281
vn -0.237478 -0.397630 0.886281
vn -0.237479 -0.397630 0.886281
vn -0.232088 0.442601 -0.866164
vn -0.232088 0.442601 -0.866164
vn -0.232088 0.442601 -0.866164
vn -0.232088 0.442601 -0.866164
vn 0.237479 -0.397631 0.886281
vn 0.237479 -0.397631 0.886281
vn 0.237479 -0.397631 0.886281
vn 0.237479 -0.397631 0.886281
vn -0.634077 0.442601 -0.634075
vn -0.634077 0.442601 -0.634075
vn -0.634077 0.442601 -0.634075
vn -0.634077 0.442601 -0.634075
vn 0.648803 -0.397631 0.648803
vn 0.648803 -0.397631 0.648803
vn 0.648803 -0.397631 0.648802
vn 0.648803 -0.397631 0.648802
vn -0.866163 0.442601 -0.232090
vn -0.866163 0.442601 -0.232090
vn -0.866163 0.442601 -0.232090
vn -0.866163 0.442601 -0.232090
vn 0.886281 -0.397631 0.237477
vn 0.886281 -0.397631 0.237477
vn 0.886281 -0.397631 0.237477
vn 0.886281 -0.397631 0.237477
vn -0.866163 0.442601 0.232090
vn -0.866163 0.442601 0.232090
vn -0.866163 0.442601 0.232090
vn -0.866163 0.442601 0.232090
vn 0.886281 -0.397630 -0.237477
vn 0.886281 -0.397630 -0.237477
vn 0.886281 -0.397630 -0.237477
vn 0.886281 -0.397630 -0.237477
s off
g Pan Pan
usemtl initialShadingGroup
f 27/53/1 28/54/2 29/55/3 30/56/4
f 28/54/5 31/57/6 32/58/7 29/55/8
f 31/57/9 33/59/10 34/60/11 32/58/12
f 33/59/13 35/61/14 36/62/15 34/60/16
f 35/61/17 37/63/18 38/64/19 36/62/20
f 37/63/21 39/65/22 40/66/23 38/64/24
f 39/65/25 41/67/26 42/68/27 40/66/28
f 41/67/29 43/69/30 44/70/31 42/68/32
f 43/69/33 45/71/34 46/72/35 44/70/36
f 45/71/37 47/73/38 48/74/39 46/72/40
f 47/73/41 49/75/42 50/76/43 48/74/44
f 49/75/45 27/77/46 30/78/47 50/76/48
s 1
f 2/2/49 1/1/50 25/51/51
f 3/3/52 2/2/49 25/51/51
f 4/4/53 3/3/52 25/51/51
f 5/5/54 4/4/53 25/51/51
f 6/6/55 5/5/54 25/51/51
f 7/7/56 6/6/55 25/51/51
f 8/8/57 7/7/56 25/51/51
f 9/9/58 8/8/57 25/51/51
f 10/10/59 9/9/58 25/51/51
f 11/11/60 10/10/59 25/51/51
f 12/12/61 11/11/60 25/51/51
f 1/1/50 12/12/61 25/51/51
s 2
f 13/49/62 14/48/63 26/52/64
f 14/48/63 15/47/65 26/52/64
f 15/47/65 16/46/66 26/52/64
f 16/46/66 17/45/67 26/52/64
f 17/45/67 18/44/68 26/52/64
f 18/44/68 19/43/69 26/52/64
f 19/43/69 20/42/70 26/52/64
f 20/42/70 21/41/71 26/52/64
f 21/41/71 22/40/72 26/52/64
f 22/40/72 23/39/73 26/52/64
f 23/39/73 24/50/74 26/52/64
f 24/50/74 13/49/62 26/52/64
s off
f 1/13/75 2/14/76 28/54/77 27/53/78
f 52/79/79 51/80/80 53/81/81 54/82/82
f 2/14/83 3/15/84 31/57/85 28/54/86
f 55/83/87 52/79/88 54/82/89 56/84/90
f 3/15/91 4/16/92 33/59/93 31/57/94
f 57/85/95 55/83/96 56/84/97 58/86/98
f 4/16/99 5/17/100 35/61/101 33/59/102
f 59/87/103 57/85/104 58/86/105 60/88/106
f 5/17/107 6/18/108 37/63/109 35/61/110
f 61/89/111 59/87/112 60/88/113 62/90/114
f 6/18/115 7/19/116 39/65/117 37/63/118
f 63/91/119 61/89/120 62/90/121 64/92/122
f 7/19/123 8/20/124 41/67/125 39/65/126
f 65/93/127 63/91/128 64/92/129 66/94/130
f 8/20/131 9/21/132 43/69/133 41/67/134
f 67/95/135 65/93/136 66/94/137 68/96/138
f 9/21/139 10/22/140 45/71/141 43/69/142
f 69/97/143 67/95/144 68/96/145 70/98/146
f 10/22/147 11/23/148 47/73/149 45/71/150
f 71/99/151 69/97/152 70/98/153 72/100/154
f 11/23/155 12/24/156 49/75/157 47/73/158
f 73/101/159 71/99/160 72/100/161 74/102/162
f 12/24/163 1/25/164 27/77/165 49/75/166
f 51/103/167 73/101/168 74/102/169 53/104/170
f 14/27/171 13/26/172 51/80/173 52/79/174
f 30/56/175 29/55/176 54/82/177 53/81/178
f 15/28/179 14/27/180 52/79/181 55/83/182
f 29/55/183 32/58/184 56/84/185 54/82/186
f 16/29/187 15/28/188 55/83/189 57/85/190
f 32/58/191 34/60/192 58/86/193 56/84/194
f 17/30/195 16/29/196 57/85/197 59/87/198
f 34/60/199 36/62/200 60/88/201 58/86/202
f 18/31/203 17/30/204 59/87/205 61/89/206
f 36/62/207 38/64/208 62/90/209 60/88/210
f 19/32/211 18/31/212 61/89/213 63/91/214
f 38/64/215 40/66/216 64/92/217 62/90/218
f 20/33/219 19/32/220 63/91/221 65/93/222
f 40/66/223 42/68/224 66/94/225 64/92/226
f 21/34/227 20/33/228 65/93/229 67/95/230
f 42/68/231 44/70/232 68/96/233 66/94/234
f 22/35/235 21/34/236 67/95/237 69/97/238
f 44/70/239 46/72/240 70/98/241 68/96/242
f 23/36/243 22/35/244 69/97/245 71/99/246
f 46/72/247 48/74/248 72/100/249 70/98/250
f 24/37/251 23/36/252 71/99/253 73/101/254
f 48/74/255 50/76/256 74/102/257 72/100/258
f 13/38/259 24/37/260 73/101/261 51/103/262
f 50/76/263 30/78/264 53/104/265 74/102/266
g default
v 2.645920 1.598075 0.290117
v 2.638225 1.603314 0.292139
v 2.627713 1.605231 0.292879
v 2.617201 1.603314 0.292139
v 2.609506 1.598075 0.290117
v 2.606689 1.590920 0.287355
v 2.609506 1.583764 0.284593
v 2.617201 1.578526 0.282571
v 2.627713 1.576608 0.281831
v 2.638225 1.578526 0.282571
v 2.645920 1.583764 0.284593
v 2.648737 1.590920 0.287355
v 2.640389 1.611834 0.567844
v 2.635031 1.615581 0.567467
v 2.627713 1.616952 0.567329
v 2.620394 1.615581 0.567467
v 2.615037 1.611834 0.567844
v 2.613076 1.606715 0.568358
v 2.615037 1.601596 0.568872
v 2.620394 1.597849 0.569249
v 2.627713 1.596478 0.569387
v 2.635031 1.597849 0.569249
v 2.640389 1.601596 0.568872
v 2.642350 1.606715 0.568358
v 2.627713 1.591045 0.289220
v 2.627713 1.606715 0.568358
v 2.627713 1.620194 0.546146
v 2.638225 1.618228 0.546273
v 2.645920 1.612857 0.546620
v 2.648737 1.605520 0.547093
v 2.645920 1.598182 0.547567
v 2.638225 1.592811 0.547914
v 2.627713 1.590845 0.548041
v 2.617201 1.592811 0.547914
v 2.609506 1.598182 0.547567
v 2.606689 1.605520 0.547093
v 2.609506 1.612857 0.546620
v 2.617201 1.618228 0.546273
vt 0.635316 0.078125
vt 0.578125 0.020934
vt 0.500000 0.000000
vt 0.421875 0.020934
vt 0.364684 0.078125
vt 0.343750 0.156250
vt 0.364684 0.234375
vt 0.421875 0.291566
vt 0.500000 0.312500
vt 0.578125 0.291566
vt 0.635316 0.234375
vt 0.656250 0.156250
vt 0.375000 0.312500
vt 0.395833 0.312500
vt 0.416667 0.312500
vt 0.437500 0.312500
vt 0.458333 0.312500
vt 0.479167 0.312500
vt 0.500000 0.312500
vt 0.520833 0.312500
vt 0.541667 0.312500
vt 0.562500 0.312500
vt 0.583333 0.312500
vt 0.604167 0.312500
vt 0.625000 0.312500
vt 0.375000 0.687500
vt 0.395833 0.687500
vt 0.416667 0.687500
vt 0.437500 0.687500
vt 0.458333 0.687500
vt 0.479167 0.687500
vt 0.500000 0.687500
vt 0.520833 0.687500
vt 0.541667 0.687500
vt 0.562500 0.687500
vt 0.583333 0.687500
vt 0.604167 0.687500
vt 0.625000 0.687500
vt 0.635316 0.765625
vt 0.578125 0.708434
vt 0.500000 0.687500
vt 0.421875 0.708434
vt 0.364684 0.765625
vt 0.343750 0.843750
vt 0.364684 0.921875
vt 0.421875 0.979066
vt 0.500000 1.000000
vt 0.578125 0.979066
vt 0.635316 0.921875
vt 0.656250 0.843750
vt 0.500000 0.156250
vt 0.500000 0.843750
vt 0.416667 0.659122
vt 0.395833 0.659122
vt 0.625000 0.659122
vt 0.375000 0.659122
vt 0.604167 0.659122
vt 0.583333 0.659122
vt 0.562500 0.659122
vt 0.541667 0.659122
vt 0.520833 0.659122
vt 0.500000 0.659122
vt 0.479167 0.659122
vt 0.458333 0.659122
vt 0.437500 0.659122
vn 0.563368 0.824813 -0.047966
vn 0.563368 0.824813 -0.047966
vn 0.563835 0.825260 -0.032199
vn 0.563798 0.825228 -0.033626
vn 0.179701 0.982020 -0.057823
vn 0.179701 0.982020 -0.057823
vn 0.179942 0.982674 -0.044414
vn 0.179933 0.982650 -0.044988
vn -0.179701 0.982020 -0.057823
vn -0.179701 0.982020 -0.057823
vn -0.179933 0.982650 -0.044988
vn -0.179942 0.982674 -0.044414
vn -0.563368 0.824813 -0.047966
vn -0.563368 0.824813 -0.047966
vn -0.563798 0.825228 -0.033626
vn -0.563835 0.825260 -0.032199
vn -0.930755 0.365053 -0.020776
vn -0.930755 0.365053 -0.020776
vn -0.930682 0.365816 -0.003077
vn -0.930672 0.365847 -0.002294
vn -0.930792 -0.364986 0.020262
vn -0.930792 -0.364986 0.020262
vn -0.930999 -0.362956 0.038787
vn -0.930994 -0.363118 0.037357
vn -0.563681 -0.824776 0.044811
vn -0.563681 -0.824776 0.044811
vn -0.564464 -0.823262 0.060169
vn -0.564385 -0.823438 0.058485
vn -0.179892 -0.982273 0.052708
vn -0.179892 -0.982273 0.052708
vn -0.180226 -0.981438 0.065567
vn -0.180210 -0.981482 0.064939
vn 0.179892 -0.982273 0.052708
vn 0.179892 -0.982273 0.052708
vn 0.180210 -0.981482 0.064939
vn 0.180226 -0.981438 0.065567
vn 0.563681 -0.824776 0.044811
vn 0.563681 -0.824776 0.044811
vn 0.564385 -0.823438 0.058485
vn 0.564464 -0.823262 0.060169
vn 0.930792 -0.364986 0.020262
vn 0.930792 -0.364986 0.020262
vn 0.930994 -0.363118 0.037357
vn 0.930999 -0.362956 0.038787
vn 0.930755 0.365053 -0.020776
vn 0.930755 0.365053 -0.020776
vn 0.930672 0.365847 -0.002294
vn 0.930682 0.365816 -0.003077
vn -0.045984 0.268329 -0.962229
vn -0.073614 0.311526 -0.947382
vn -0.000000 0.357826 -0.933788
vn -0.000000 0.249755 -0.968309
vn 0.045984 0.268330 -0.962229
vn 0.073614 0.311528 -0.947381
vn 0.080316 0.359768 -0.929579
vn 0.069672 0.405087 -0.911620
vn 0.041460 0.441266 -0.896418
vn 0.000000 0.455608 -0.890181
vn -0.041460 0.441266 -0.896418
vn -0.069672 0.405086 -0.911620
vn -0.080316 0.359766 -0.929579
vn -0.000001 0.099967 0.994991
vn -0.000004 0.099971 0.994990
vn -0.000000 0.099970 0.994990
vn 0.000000 0.099970 0.994990
vn 0.000004 0.099971 0.994990
vn 0.000001 0.099967 0.994991
vn 0.000000 0.099966 0.994991
vn -0.000001 0.099970 0.994990
vn -0.000001 0.099973 0.994990
vn 0.000000 0.099972 0.994990
vn 0.000001 0.099974 0.994990
vn 0.000001 0.099971 0.994990
vn -0.000000 0.099966 0.994991
vn 0.179807 0.972401 0.148680
vn 0.179807 0.972401 0.148680
vn 0.555950 0.810486 0.184476
vn 0.555950 0.810486 0.184476
vn 0.897184 0.363968 0.250176
vn 0.897184 0.363968 0.250176
vn 0.901683 -0.323052 0.287409
vn 0.901684 -0.323052 0.287409
vn 0.561416 -0.782274 0.269925
vn 0.561416 -0.782274 0.269925
vn 0.181671 -0.950714 0.251275
vn 0.181671 -0.950714 0.251275
vn -0.181671 -0.950714 0.251275
vn -0.181671 -0.950714 0.251275
vn -0.561416 -0.782274 0.269925
vn -0.561416 -0.782274 0.269925
vn -0.901683 -0.323053 0.287409
vn -0.901683 -0.323053 0.287409
vn -0.897184 0.363968 0.250176
vn -0.897184 0.363968 0.250176
vn -0.555950 0.810486 0.184476
vn -0.555950 0.810486 0.184476
vn -0.179807 0.972401 0.148680
vn -0.179807 0.972401 0.148680
s 1
g Pan Bar
usemtl initialShadingGroup
f 75/117/267 76/118/268 102/158/269 103/160/270
s 2
f 76/118/271 77/119/272 101/157/273 102/158/274
s 3
f 77/119/275 78/120/276 112/169/277 101/157/278
s 4
f 78/120/279 79/121/280 111/168/281 112/169/282
s 5
f 79/121/283 80/122/284 110/167/285 111/168/286
s 6
f 80/122/287 81/123/288 109/166/289 110/167/290
s 7
f 81/123/291 82/124/292 108/165/293 109/166/294
s 8
f 82/124/295 83/125/296 107/164/297 108/165/298
s 9
f 83/125/299 84/126/300 106/163/301 107/164/302
s 10
f 84/126/303 85/127/304 105/162/305 106/163/306
s 11
f 85/127/307 86/128/308 104/161/309 105/162/310
s 12
f 86/128/311 75/129/312 103/159/313 104/161/314
s 13
f 76/106/315 75/105/316 99/155/317
f 77/107/318 76/106/315 99/155/317
f 78/108/319 77/107/318 99/155/317
f 79/109/320 78/108/319 99/155/317
f 80/110/321 79/109/320 99/155/317
f 81/111/322 80/110/321 99/155/317
f 82/112/323 81/111/322 99/155/317
f 83/113/324 82/112/323 99/155/317
f 84/114/325 83/113/324 99/155/317
f 85/115/326 84/114/325 99/155/317
f 86/116/327 85/115/326 99/155/317
f 75/105/316 86/116/327 99/155/317
s 14
f 87/153/328 88/152/329 100/156/330
f 88/152/329 89/151/331 100/156/330
f 89/151/331 90/150/332 100/156/330
f 90/150/332 91/149/333 100/156/330
f 91/149/333 92/148/334 100/156/330
f 92/148/334 93/147/335 100/156/330
f 93/147/335 94/146/336 100/156/330
f 94/146/336 95/145/337 100/156/330
f 95/145/337 96/144/338 100/156/330
f 96/144/338 97/143/339 100/156/330
f 97/143/339 98/154/340 100/156/330
f 98/154/340 87/153/328 100/156/330
s 2
f 102/158/274 101/157/273 89/132/341 88/131/342
s 1
f 103/160/270 102/158/269 88/131/343 87/130/344
s 12
f 104/161/314 103/159/313 87/142/345 98/141/346
s 11
f 105/162/310 104/161/309 98/141/347 97/140/348
s 10
f 106/163/306 105/162/305 97/140/349 96/139/350
s 9
f 107/164/302 106/163/301 96/139/351 95/138/352
s 8
f 108/165/298 107/164/297 95/138/353 94/137/354
s 7
f 109/166/294 108/165/293 94/137/355 93/136/356
s 6
f 110/167/290 109/166/289 93/136/357 92/135/358
s 5
f 111/168/286 110/167/285 92/135/359 91/134/360
s 4
f 112/169/282 111/168/281 91/134/361 90/133/362
s 3
f 101/157/278 112/169/277 90/133/363 89/132/364
g default
v 2.647832 1.604509 0.374647
v 2.639329 1.610297 0.374647
v 2.627713 1.612416 0.374647
v 2.616097 1.610297 0.374647
v 2.607594 1.604509 0.374647
v 2.604481 1.596601 0.374647
v 2.607594 1.588694 0.374647
v 2.616097 1.582906 0.374647
v 2.627713 1.580787 0.374647
v 2.639329 1.582906 0.374647
v 2.647832 1.588694 0.374647
v 2.650945 1.596601 0.374647
v 2.640404 1.616338 0.598550
v 2.635040 1.620090 0.598173
v 2.627713 1.621463 0.598035
v 2.620386 1.620090 0.598173
v 2.615022 1.616338 0.598550
v 2.613059 1.611214 0.599065
v 2.615022 1.606089 0.599580
v 2.620386 1.602338 0.599957
v 2.627713 1.600965 0.600095
v 2.635040 1.602338 0.599957
v 2.640404 1.606089 0.599580
v 2.642367 1.611214 0.599065
v 2.627713 1.596756 0.376956
v 2.627713 1.611214 0.600775
v 2.627713 1.629963 0.567746
v 2.642204 1.627253 0.567921
v 2.652812 1.619848 0.568399
v 2.656695 1.609734 0.569052
v 2.652812 1.599619 0.569705
v 2.642204 1.592215 0.570183
v 2.627713 1.589505 0.570358
v 2.613222 1.592215 0.570183
v 2.602614 1.599619 0.569705
v 2.598731 1.609734 0.569052
v 2.602614 1.619848 0.568399
v 2.613222 1.627253 0.567921
vt 0.635316 0.078125
vt 0.578125 0.020934
vt 0.500000 0.000000
vt 0.421875 0.020934
vt 0.364684 0.078125
vt 0.343750 0.156250
vt 0.364684 0.234375
vt 0.421875 0.291566
vt 0.500000 0.312500
vt 0.578125 0.291566
vt 0.635316 0.234375
vt 0.656250 0.156250
vt 0.375000 0.312500
vt 0.395833 0.312500
vt 0.416667 0.312500
vt 0.437500 0.312500
vt 0.458333 0.312500
vt 0.479167 0.312500
vt 0.500000 0.312500
vt 0.520833 0.312500
vt 0.541667 0.312500
vt 0.562500 0.312500
vt 0.583333 0.312500
vt 0.604167 0.312500
vt 0.625000 0.312500
vt 0.375000 0.687500
vt 0.395833 0.687500
vt 0.416667 0.687500
vt 0.437500 0.687500
vt 0.458333 0.687500
vt 0.479167 0.687500
vt 0.500000 0.687500
vt 0.520833 0.687500
vt 0.541667 0.687500
vt 0.562500 0.687500
vt 0.583333 0.687500
vt 0.604167 0.687500
vt 0.625000 0.687500
vt 0.635316 0.765625
vt 0.578125 0.708434
vt 0.500000 0.687500
vt 0.421875 0.708434
vt 0.364684 0.765625
vt 0.343750 0.843750
vt 0.364684 0.921875
vt 0.421875 0.979066
vt 0.500000 1.000000
vt 0.578125 0.979066
vt 0.635316 0.921875
vt 0.656250 0.843750
vt 0.500000 0.156250
vt 0.500000 0.843750
vt 0.416667 0.659122
vt 0.395833 0.659122
vt 0.625000 0.659122
vt 0.375000 0.659122
vt 0.604167 0.659122
vt 0.583333 0.659122
vt 0.562500 0.659122
vt 0.541667 0.659122
vt 0.520833 0.659122
vt 0.500000 0.659122
vt 0.479167 0.659122
vt 0.458333 0.659122
vt 0.437500 0.659122
vn 0.567632 0.819397 -0.079895
vn 0.567632 0.819397 -0.079895
vn 0.568138 0.822310 -0.032026
vn 0.568146 0.822042 -0.038173
vn 0.181735 0.979329 -0.088805
vn 0.181735 0.979329 -0.088805
vn 0.181984 0.982122 -0.048147
vn 0.181978 0.981998 -0.050634
vn -0.181735 0.979329 -0.088805
vn -0.181735 0.979329 -0.088805
vn -0.181978 0.981998 -0.050634
vn -0.181984 0.982122 -0.048147
vn -0.567632 0.819397 -0.079895
vn -0.567632 0.819397 -0.079895
vn -0.568146 0.822042 -0.038173
vn -0.568138 0.822310 -0.032027
vn -0.931604 0.359715 -0.052139
vn -0.931604 0.359715 -0.052139
vn -0.931780 0.363022 -0.001086
vn -0.931697 0.363227 0.002666
vn -0.932191 -0.361952 -0.003325
vn -0.932191 -0.361952 -0.003325
vn -0.932552 -0.357498 0.050415
vn -0.932632 -0.357948 0.045518
vn -0.568343 -0.822201 0.031163
vn -0.568343 -0.822201 0.031163
vn -0.569186 -0.818735 0.075505
vn -0.569135 -0.819322 0.069252
vn -0.181982 -0.982320 0.043924
vn -0.181982 -0.982320 0.043924
vn -0.182336 -0.979947 0.080363
vn -0.182321 -0.980141 0.077986
vn 0.181982 -0.982320 0.043924
vn 0.181982 -0.982320 0.043924
vn 0.182321 -0.980141 0.077986
vn 0.182336 -0.979947 0.080363
vn 0.568343 -0.822201 0.031163
vn 0.568343 -0.822201 0.031163
vn 0.569135 -0.819322 0.069252
vn 0.569186 -0.818735 0.075505
vn 0.932191 -0.361952 -0.003325
vn 0.932191 -0.361952 -0.003325
vn 0.932632 -0.357948 0.045518
vn 0.932552 -0.357498 0.050415
vn 0.931604 0.359715 -0.052139
vn 0.931604 0.359715 -0.052139
vn 0.931697 0.363228 0.002666
vn 0.931780 0.363022 -0.001086
vn -0.055013 -0.121797 -0.991029
vn -0.089101 -0.064793 -0.993913
vn -0.000000 -0.000577 -1.000000
vn 0.000000 -0.145871 -0.989304
vn 0.055012 -0.121797 -0.991029
vn 0.089101 -0.064793 -0.993913
vn 0.098903 0.000218 -0.995097
vn 0.088199 0.064590 -0.994007
vn 0.053953 0.120017 -0.991305
vn 0.000000 0.143108 -0.989707
vn -0.053953 0.120016 -0.991305
vn -0.088199 0.064589 -0.994007
vn -0.098903 0.000218 -0.995097
vn 0.102163 0.172392 0.979716
vn 0.061953 0.233346 0.970418
vn -0.000000 0.098849 0.995102
vn 0.000000 0.258275 0.966072
vn -0.061953 0.233346 0.970418
vn -0.102163 0.172392 0.979716
vn -0.115345 0.099719 0.988308
vn -0.103963 0.025534 0.994253
vn -0.064032 -0.039090 0.997182
vn 0.000000 -0.066253 0.997803
vn 0.064032 -0.039090 0.997182
vn 0.103963 0.025534 0.994253
vn 0.115345 0.099719 0.988308
vn 0.173652 0.948241 0.265864
vn 0.173652 0.948241 0.265864
vn 0.532821 0.786748 0.311656
vn 0.532821 0.786748 0.311656
vn 0.849537 0.355751 0.389523
vn 0.849537 0.355751 0.389523
vn 0.856849 -0.296371 0.421870
vn 0.856849 -0.296371 0.421870
vn 0.542117 -0.746619 0.385576
vn 0.542117 -0.746620 0.385576
vn 0.176918 -0.918237 0.354317
vn 0.176918 -0.918237 0.354317
vn -0.176918 -0.918237 0.354317
vn -0.176918 -0.918237 0.354317
vn -0.542117 -0.746619 0.385576
vn -0.542117 -0.746620 0.385576
vn -0.856849 -0.296371 0.421870
vn -0.856849 -0.296371 0.421870
vn -0.849537 0.355751 0.389523
vn -0.849537 0.355751 0.389523
vn -0.532821 0.786748 0.311656
vn -0.532821 0.786748 0.311656
vn -0.173652 0.948241 0.265864
vn -0.173652 0.948241 0.265864
s 1
g Pan Handle
usemtl initialShadingGroup
f 113/182/365 114/183/366 140/223/367 141/225/368
s 2
f 114/183/369 115/184/370 139/222/371 140/223/372
s 3
f 115/184/373 116/185/374 150/234/375 139/222/376
s 4
f 116/185/377 117/186/378 149/233/379 150/234/380
s 5
f 117/186/381 118/187/382 148/232/383 149/233/384
s 6
f 118/187/385 119/188/386 147/231/387 148/232/388
s 7
f 119/188/389 120/189/390 146/230/391 147/231/392
s 8
f 120/189/393 121/190/394 145/229/395 146/230/396
s 9
f 121/190/397 122/191/398 144/228/399 145/229/400
s 10
f 122/191/401 123/192/402 143/227/403 144/228/404
s 11
f 123/192/405 124/193/406 142/226/407 143/227/408
s 12
f 124/193/409 113/194/410 141/224/411 142/226/412
s 13
f 114/171/413 113/170/414 137/220/415
f 115/172/416 114/171/413 137/220/415
f 116/173/417 115/172/416 137/220/415
f 117/174/418 116/173/417 137/220/415
f 118/175/419 117/174/418 137/220/415
f 119/176/420 118/175/419 137/220/415
f 120/177/421 119/176/420 137/220/415
f 121/178/422 120/177/421 137/220/415
f 122/179/423 121/178/422 137/220/415
f 123/180/424 122/179/423 137/220/415
f 124/181/425 123/180/424 137/220/415
f 113/170/414 124/181/425 137/220/415
s 14
f 125/218/426 126/217/427 138/221/428
f 126/217/427 127/216/429 138/221/428
f 127/216/429 128/215/430 138/221/428
f 128/215/430 129/214/431 138/221/428
f 129/214/431 130/213/432 138/221/428
f 130/213/432 131/212/433 138/221/428
f 131/212/433 132/211/434 138/221/428
f 132/211/434 133/210/435 138/221/428
f 133/210/435 134/209/436 138/221/428
f 134/209/436 135/208/437 138/221/428
f 135/208/437 136/219/438 138/221/428
f 136/219/438 125/218/426 138/221/428
s 2
f 140/223/372 139/222/371 127/197/439 126/196/440
s 1
f 141/225/368 140/223/367 126/196/441 125/195/442
s 12
f 142/226/412 141/224/411 125/207/443 136/206/444
s 11
f 143/227/408 142/226/407 136/206/445 135/205/446
s 10
f 144/228/404 143/227/403 135/205/447 134/204/448
s 9
f 145/229/400 144/228/399 134/204/449 133/203/450
s 8
f 146/230/396 145/229/395 133/203/451 132/202/452
s 7
f 147/231/392 146/230/391 132/202/453 131/201/454
s 6
f 148/232/388 147/231/387 131/201/455 130/200/456
s 5
f 149/233/384 148/232/383 130/200/457 129/199/458
s 4
f 150/234/380 149/233/379 129/199/459 128/198/460
s 3
f 139/222/376 150/234/375 128/198/461 127/197/462
