# This file uses centimeters as units for non-parametric coordinates.

mtllib plate.mtl
g default
v 3.413456 1.535791 0.062228
v 3.374472 1.535791 0.023244
v 3.321218 1.535791 0.008975
v 3.267964 1.535791 0.023244
v 3.228980 1.535791 0.062228
v 3.214710 1.535791 0.115482
v 3.228980 1.535791 0.168736
v 3.267964 1.535791 0.207720
v 3.321218 1.535791 0.221990
v 3.374472 1.535791 0.207720
v 3.413456 1.535791 0.168736
v 3.427726 1.535791 0.115482
v 3.434104 1.544318 0.050307
v 3.386393 1.544318 0.002595
v 3.321218 1.544318 -0.014868
v 3.256043 1.544318 0.002595
v 3.208331 1.544318 0.050307
v 3.190868 1.544318 0.115482
v 3.208331 1.544318 0.180657
v 3.256051 1.544318 0.228397
v 3.320913 1.544318 0.245776
v 3.386393 1.544318 0.228369
v 3.434104 1.544318 0.180657
v 3.451568 1.544318 0.115482
v 3.321218 1.535623 0.115482
v 3.321218 1.544318 0.115482
v 3.421683 1.535284 0.057478
v 3.379221 1.535284 0.015017
v 3.394591 1.541631 -0.011604
v 3.448304 1.541631 0.042109
v 3.321218 1.535284 -0.000525
v 3.321218 1.541631 -0.031264
v 3.263214 1.535284 0.015017
v 3.247845 1.541631 -0.011604
v 3.220752 1.535284 0.057478
v 3.194132 1.541631 0.042109
v 3.205210 1.535284 0.115482
v 3.174471 1.541631 0.115482
v 3.220930 1.535324 0.173777
v 3.194437 1.541640 0.189073
v 3.263187 1.535324 0.216035
v 3.247892 1.541640 0.242528
v 3.321218 1.535284 0.231490
v 3.321218 1.541631 0.262228
v 3.379221 1.535284 0.215947
v 3.394591 1.541631 0.242568
v 3.421683 1.535284 0.173486
v 3.448304 1.541631 0.188855
v 3.437225 1.535284 0.115482
v 3.467964 1.541631 0.115482
v 3.470982 1.548074 0.025823
v 3.407685 1.548074 -0.039812
v 3.480721 1.548907 0.019993
v 3.413307 1.548907 -0.049910
v 3.321218 1.548074 -0.063836
v 3.321218 1.548907 -0.075496
v 3.234751 1.548074 -0.039812
v 3.229129 1.548907 -0.049910
v 3.171453 1.548074 0.025823
v 3.161715 1.548907 0.019993
v 3.148285 1.548074 0.115482
v 3.137040 1.548907 0.115482
v 3.171453 1.548074 0.205141
v 3.161715 1.548907 0.210971
v 3.234862 1.548034 0.270600
v 3.229129 1.548907 0.280874
v 3.320913 1.548034 0.294509
v 3.321218 1.548907 0.306460
v 3.407685 1.548074 0.270776
v 3.413307 1.548907 0.280874
v 3.470982 1.548074 0.205141
v 3.480721 1.548907 0.210971
v 3.494151 1.548074 0.115482
v 3.505396 1.548907 0.115482
vt 0.635316 0.078125
vt 0.578125 0.020934
vt 0.500000 0.000000
vt 0.421875 0.020934
vt 0.364684 0.078125
vt 0.343750 0.156250
vt 0.364684 0.234375
vt 0.421875 0.291566
vt 0.500000 0.312500
vt 0.578125 0.291566
vt 0.635316 0.234375
vt 0.656250 0.156250
vt 0.375000 0.312500
vt 0.395833 0.312500
vt 0.416667 0.312500
vt 0.437500 0.312500
vt 0.458333 0.312500
vt 0.479167 0.312500
vt 0.500000 0.312500
vt 0.520833 0.312500
vt 0.541667 0.312500
vt 0.562500 0.312500
vt 0.583333 0.312500
vt 0.604167 0.312500
vt 0.625000 0.312500
vt 0.375000 0.687500
vt 0.395833 0.687500
vt 0.416667 0.687500
vt 0.437500 0.687500
vt 0.458333 0.687500
vt 0.479167 0.687500
vt 0.500000 0.687500
vt 0.520833 0.687500
vt 0.541667 0.687500
vt 0.562500 0.687500
vt 0.583333 0.687500
vt 0.604167 0.687500
vt 0.625000 0.687500
vt 0.635316 0.765625
vt 0.578125 0.708434
vt 0.500000 0.687500
vt 0.421875 0.708434
vt 0.364684 0.765625
vt 0.343750 0.843750
vt 0.364684 0.921875
vt 0.421875 0.979066
vt 0.500000 1.000000
vt 0.578125 0.979066
vt 0.635316 0.921875
vt 0.656250 0.843750
vt 0.500000 0.156250
vt 0.500000 0.843750
vt 0.375000 0.312500
vt 0.395833 0.312500
vt 0.395833 0.687500
vt 0.375000 0.687500
vt 0.416667 0.312500
vt 0.416667 0.687500
vt 0.437500 0.312500
vt 0.437500 0.687500
vt 0.458333 0.312500
vt 0.458333 0.687500
vt 0.479167 0.312500
vt 0.479167 0.687500
vt 0.500000 0.312500
vt 0.500000 0.687500
vt 0.520833 0.312500
vt 0.520833 0.687500
vt 0.541667 0.312500
vt 0.541667 0.687500
vt 0.562500 0.312500
vt 0.562500 0.687500
vt 0.583333 0.312500
vt 0.583333 0.687500
vt 0.604167 0.312500
vt 0.604167 0.687500
vt 0.625000 0.312500
vt 0.625000 0.687500
vt 0.395833 0.687500
vt 0.375000 0.687500
vt 0.375000 0.687500
vt 0.395833 0.687500
vt 0.416667 0.687500
vt 0.416667 0.687500
vt 0.437500 0.687500
vt 0.437500 0.687500
vt 0.458333 0.687500
vt 0.458333 0.687500
vt 0.479167 0.687500
vt 0.479167 0.687500
vt 0.500000 0.687500
vt 0.500000 0.687500
vt 0.520833 0.687500
vt 0.520833 0.687500
vt 0.541667 0.687500
vt 0.541667 0.687500
vt 0.562500 0.687500
vt 0.562500 0.687500
vt 0.583333 0.687500
vt 0.583333 0.687500
vt 0.604167 0.687500
vt 0.604167 0.687500
vt 0.625000 0.687500
vt 0.625000 0.687500
vn 0.147806 -0.977910 -0.147806
vn 0.147806 -0.977910 -0.147806
vn 0.147806 -0.977910 -0.147806
vn 0.147806 -0.977910 -0.147806
vn 0.054101 -0.977910 -0.201906
vn 0.054101 -0.977910 -0.201906
vn 0.054101 -0.977910 -0.201906
vn 0.054101 -0.977910 -0.201906
vn -0.054101 -0.977909 -0.201906
vn -0.054101 -0.977909 -0.201906
vn -0.054101 -0.977909 -0.201906
vn -0.054101 -0.977909 -0.201906
vn -0.147806 -0.977909 -0.147806
vn -0.147806 -0.977910 -0.147806
vn -0.147806 -0.977909 -0.147806
vn -0.147806 -0.977910 -0.147806
vn -0.201906 -0.977909 -0.054101
vn -0.201906 -0.977910 -0.054101
vn -0.201906 -0.977909 -0.054101
vn -0.201906 -0.977909 -0.054101
vn -0.201683 -0.977909 0.054936
vn -0.201683 -0.977909 0.054936
vn -0.201683 -0.977909 0.054936
vn -0.201683 -0.977909 0.054936
vn -0.147806 -0.977909 0.147806
vn -0.147806 -0.977909 0.147806
vn -0.147806 -0.977909 0.147806
vn -0.147806 -0.977909 0.147806
vn -0.054384 -0.977909 0.201831
vn -0.054384 -0.977909 0.201831
vn -0.054384 -0.977909 0.201831
vn -0.054384 -0.977909 0.201831
vn 0.054101 -0.977910 0.201906
vn 0.054101 -0.977910 0.201906
vn 0.054101 -0.977910 0.201906
vn 0.054101 -0.977910 0.201906
vn 0.147806 -0.977910 0.147806
vn 0.147806 -0.977910 0.147806
vn 0.147806 -0.977910 0.147806
vn 0.147806 -0.977910 0.147806
vn 0.201906 -0.977910 0.054100
vn 0.201906 -0.977910 0.054100
vn 0.201906 -0.977909 0.054100
vn 0.201906 -0.977910 0.054100
vn 0.201906 -0.977909 -0.054100
vn 0.201906 -0.977910 -0.054100
vn 0.201906 -0.977909 -0.054100
vn 0.201906 -0.977909 -0.054100
vn 0.000787 -0.999999 -0.001364
vn 0.001364 -0.999999 -0.000787
vn 0.000000 -1.000000 0.000000
vn -0.000000 -0.999999 -0.001575
vn -0.000787 -0.999999 -0.001364
vn -0.001364 -0.999999 -0.000787
vn -0.001575 -0.999999 -0.000000
vn -0.001364 -0.999999 0.000787
vn -0.000787 -0.999999 0.001364
vn -0.000000 -0.999999 0.001575
vn 0.000787 -0.999999 0.001364
vn 0.001364 -0.999999 0.000787
vn 0.001575 -0.999999 0.000000
vn 0.000000 1.000000 -0.000000
vn 0.000000 1.000000 -0.000000
vn 0.000000 1.000000 -0.000000
vn 0.000000 1.000000 -0.000000
vn -0.000000 1.000000 -0.000000
vn -0.000000 1.000000 -0.000000
vn -0.000000 1.000000 0.000000
vn -0.000000 1.000000 0.000000
vn -0.000000 1.000000 0.000000
vn -0.000000 1.000000 0.000000
vn 0.000000 1.000000 0.000000
vn 0.000000 1.000000 0.000000
vn 0.000000 1.000000 0.000000
vn -0.038944 -0.998482 0.038944
vn -0.038944 -0.998482 0.038944
vn -0.038944 -0.998482 0.038944
vn -0.038944 -0.998482 0.038944
vn -0.054073 0.997174 0.052148
vn -0.054073 0.997174 0.052148
vn -0.054073 0.997174 0.052148
vn -0.054073 0.997174 0.052148
vn -0.014254 -0.998482 0.053198
vn -0.014254 -0.998482 0.053198
vn -0.014254 -0.998482 0.053198
vn -0.014254 -0.998482 0.053198
vn -0.019794 0.997263 0.071241
vn -0.019794 0.997263 0.071241
vn -0.019794 0.997263 0.071241
vn -0.019794 0.997263 0.071241
vn 0.014254 -0.998482 0.053198
vn 0.014254 -0.998482 0.053198
vn 0.014254 -0.998482 0.053198
vn 0.014254 -0.998482 0.053198
vn 0.019794 0.997263 0.071241
vn 0.019794 0.997263 0.071241
vn 0.019794 0.997263 0.071241
vn 0.019794 0.997263 0.071241
vn 0.038944 -0.998482 0.038944
vn 0.038944 -0.998482 0.038944
vn 0.038944 -0.998482 0.038944
vn 0.038944 -0.998482 0.038944
vn 0.054073 0.997174 0.052147
vn 0.054073 0.997174 0.052147
vn 0.054073 0.997174 0.052147
vn 0.054073 0.997174 0.052147
vn 0.053198 -0.998482 0.014254
vn 0.053198 -0.998482 0.014254
vn 0.053198 -0.998482 0.014254
vn 0.053198 -0.998482 0.014254
vn 0.073858 0.997086 0.019085
vn 0.073858 0.997086 0.019085
vn 0.073858 0.997086 0.019085
vn 0.073858 0.997086 0.019085
vn 0.051458 -0.998584 -0.013477
vn 0.051458 -0.998584 -0.013477
vn 0.051458 -0.998584 -0.013477
vn 0.051458 -0.998584 -0.013477
vn 0.073858 0.997086 -0.019085
vn 0.073858 0.997086 -0.019085
vn 0.073858 0.997086 -0.019085
vn 0.073858 0.997086 -0.019085
vn 0.035570 -0.998734 -0.035571
vn 0.035570 -0.998734 -0.035571
vn 0.035570 -0.998734 -0.035571
vn 0.035570 -0.998734 -0.035571
vn 0.054957 0.997091 -0.052820
vn 0.054957 0.997091 -0.052820
vn 0.054957 0.997091 -0.052820
vn 0.054957 0.997091 -0.052820
vn 0.013252 -0.998613 -0.050956
vn 0.013252 -0.998613 -0.050956
vn 0.013252 -0.998613 -0.050956
vn 0.013252 -0.998613 -0.050956
vn 0.020378 0.997099 -0.073342
vn 0.020378 0.997099 -0.073342
vn 0.020378 0.997099 -0.073342
vn 0.020378 0.997099 -0.073342
vn -0.014254 -0.998482 -0.053198
vn -0.014254 -0.998482 -0.053198
vn -0.014254 -0.998482 -0.053198
vn -0.014254 -0.998482 -0.053198
vn -0.020012 0.997221 -0.071769
vn -0.020012 0.997220 -0.071769
vn -0.020012 0.997220 -0.071769
vn -0.020012 0.997220 -0.071769
vn -0.038944 -0.998482 -0.038944
vn -0.038944 -0.998482 -0.038944
vn -0.038944 -0.998482 -0.038944
vn -0.038944 -0.998482 -0.038944
vn -0.054073 0.997174 -0.052148
vn -0.054073 0.997174 -0.052148
vn -0.054073 0.997174 -0.052148
vn -0.054073 0.997174 -0.052148
vn -0.053199 -0.998482 -0.014255
vn -0.053199 -0.998482 -0.014255
vn -0.053199 -0.998482 -0.014255
vn -0.053199 -0.998482 -0.014255
vn -0.073860 0.997086 -0.019086
vn -0.073860 0.997086 -0.019086
vn -0.073860 0.997086 -0.019086
vn -0.073860 0.997086 -0.019086
vn -0.053199 -0.998482 0.014255
vn -0.053199 -0.998482 0.014255
vn -0.053199 -0.998482 0.014255
vn -0.053199 -0.998482 0.014255
vn -0.073860 0.997086 0.019086
vn -0.073860 0.997086 0.019086
vn -0.073860 0.997086 0.019086
vn -0.073860 0.997086 0.019086
vn -0.060522 0.996405 0.059274
vn -0.060522 0.996405 0.059274
vn -0.060522 0.996405 0.059274
vn -0.060522 0.996405 0.059274
vn 0.129693 -0.983377 -0.127081
vn 0.129693 -0.983377 -0.127081
vn 0.129693 -0.983377 -0.127081
vn 0.129693 -0.983377 -0.127081
vn -0.021078 0.996805 0.077042
vn -0.021078 0.996805 0.077042
vn -0.021078 0.996805 0.077042
vn -0.021078 0.996805 0.077042
vn 0.044739 -0.985511 -0.163607
vn 0.044739 -0.985511 -0.163607
vn 0.044739 -0.985511 -0.163607
vn 0.044739 -0.985511 -0.163607
vn 0.021078 0.996805 0.077042
vn 0.021078 0.996805 0.077042
vn 0.021078 0.996805 0.077042
vn 0.021078 0.996805 0.077042
vn -0.044739 -0.985511 -0.163607
vn -0.044739 -0.985511 -0.163607
vn -0.044739 -0.985511 -0.163607
vn -0.044739 -0.985511 -0.163607
vn 0.060522 0.996405 0.059275
vn 0.060522 0.996405 0.059275
vn 0.060522 0.996405 0.059275
vn 0.060522 0.996405 0.059275
vn -0.129693 -0.983377 -0.127082
vn -0.129693 -0.983377 -0.127082
vn -0.129693 -0.983377 -0.127082
vn -0.129693 -0.983377 -0.127082
vn 0.087115 0.995936 0.022861
vn 0.087115 0.995936 0.022861
vn 0.087115 0.995936 0.022861
vn 0.087115 0.995936 0.022861
vn -0.188652 -0.980794 -0.049532
vn -0.188652 -0.980794 -0.049532
vn -0.188652 -0.980794 -0.049532
vn -0.188652 -0.980794 -0.049532
vn 0.087115 0.995936 -0.022861
vn 0.087115 0.995936 -0.022861
vn 0.087115 0.995936 -0.022861
vn 0.087115 0.995936 -0.022861
vn -0.187847 -0.980943 0.049651
vn -0.187847 -0.980943 0.049651
vn -0.187847 -0.980943 0.049651
vn -0.187847 -0.980943 0.049651
vn 0.060463 0.996425 -0.059006
vn 0.060463 0.996425 -0.059006
vn 0.060463 0.996425 -0.059006
vn 0.060463 0.996425 -0.059006
vn -0.129331 -0.983471 0.126721
vn -0.129331 -0.983471 0.126721
vn -0.129331 -0.983471 0.126721
vn -0.129331 -0.983471 0.126721
vn 0.020955 0.996842 -0.076594
vn 0.020955 0.996842 -0.076594
vn 0.020955 0.996842 -0.076594
vn 0.020955 0.996842 -0.076594
vn -0.044787 -0.985545 0.163384
vn -0.044787 -0.985545 0.163384
vn -0.044787 -0.985545 0.163384
vn -0.044787 -0.985545 0.163384
vn -0.021019 0.996823 -0.076820
vn -0.021019 0.996823 -0.076820
vn -0.021019 0.996823 -0.076820
vn -0.021019 0.996823 -0.076820
vn 0.044739 -0.985511 0.163607
vn 0.044739 -0.985511 0.163607
vn 0.044739 -0.985511 0.163607
vn 0.044739 -0.985511 0.163607
vn -0.060522 0.996405 -0.059274
vn -0.060522 0.996405 -0.059274
vn -0.060522 0.996405 -0.059274
vn -0.060522 0.996405 -0.059274
vn 0.129693 -0.983377 0.127081
vn 0.129693 -0.983377 0.127081
vn 0.129693 -0.983377 0.127081
vn 0.129693 -0.983377 0.127081
vn -0.087115 0.995936 -0.022861
vn -0.087115 0.995936 -0.022861
vn -0.087115 0.995936 -0.022861
vn -0.087115 0.995936 -0.022861
vn 0.188652 -0.980794 0.049531
vn 0.188652 -0.980794 0.049531
vn 0.188652 -0.980794 0.049531
vn 0.188652 -0.980794 0.049531
vn -0.087115 0.995936 0.022861
vn -0.087115 0.995936 0.022861
vn -0.087115 0.995936 0.022861
vn -0.087115 0.995936 0.022861
vn 0.188652 -0.980794 -0.049531
vn 0.188652 -0.980794 -0.049531
vn 0.188652 -0.980794 -0.049531
vn 0.188652 -0.980794 -0.049531
s off
g Plate
usemtl initialShadingGroup
f 27/53/1 28/54/2 29/55/3 30/56/4
f 28/54/5 31/57/6 32/58/7 29/55/8
f 31/57/9 33/59/10 34/60/11 32/58/12
f 33/59/13 35/61/14 36/62/15 34/60/16
f 35/61/17 37/63/18 38/64/19 36/62/20
f 37/63/21 39/65/22 40/66/23 38/64/24
f 39/65/25 41/67/26 42/68/27 40/66/28
f 41/67/29 43/69/30 44/70/31 42/68/32
f 43/69/33 45/71/34 46/72/35 44/70/36
f 45/71/37 47/73/38 48/74/39 46/72/40
f 47/73/41 49/75/42 50/76/43 48/74/44
f 49/75/45 27/77/46 30/78/47 50/76/48
s 1
f 2/2/49 1/1/50 25/51/51
f 3/3/52 2/2/49 25/51/51
f 4/4/53 3/3/52 25/51/51
f 5/5/54 4/4/53 25/51/51
f 6/6/55 5/5/54 25/51/51
f 7/7/56 6/6/55 25/51/51
f 8/8/57 7/7/56 25/51/51
f 9/9/58 8/8/57 25/51/51
f 10/10/59 9/9/58 25/51/51
f 11/11/60 10/10/59 25/51/51
f 12/12/61 11/11/60 25/51/51
f 1/1/50 12/12/61 25/51/51
s 2
f 13/49/62 14/48/63 26/52/64
f 14/48/63 15/47/65 26/52/64
f 15/47/65 16/46/66 26/52/64
f 16/46/66 17/45/67 26/52/64
f 17/45/67 18/44/68 26/52/64
f 18/44/68 19/43/69 26/52/64
f 19/43/69 20/42/70 26/52/64
f 20/42/70 21/41/71 26/52/64
f 21/41/71 22/40/72 26/52/64
f 22/40/72 23/39/73 26/52/64
f 23/39/73 24/50/74 26/52/64
f 24/50/74 13/49/62 26/52/64
s off
f 1/13/75 2/14/76 28/54/77 27/53/78
f 52/79/79 51/80/80 53/81/81 54/82/82
f 2/14/83 3/15/84 31/57/85 28/54/86
f 55/83/87 52/79/88 54/82/89 56/84/90
f 3/15/91 4/16/92 33/59/93 31/57/94
f 57/85/95 55/83/96 56/84/97 58/86/98
f 4/16/99 5/17/100 35/61/101 33/59/102
f 59/87/103 57/85/104 58/86/105 60/88/106
f 5/17/107 6/18/108 37/63/109 35/61/110
f 61/89/111 59/87/112 60/88/113 62/90/114
f 6/18/115 7/19/116 39/65/117 37/63/118
f 63/91/119 61/89/120 62/90/121 64/92/122
f 7/19/123 8/20/124 41/67/125 39/65/126
f 65/93/127 63/91/128 64/92/129 66/94/130
f 8/20/131 9/21/132 43/69/133 41/67/134
f 67/95/135 65/93/136 66/94/137 68/96/138
f 9/21/139 10/22/140 45/71/141 43/69/142
f 69/97/143 67/95/144 68/96/145 70/98/146
f 10/22/147 11/23/148 47/73/149 45/71/150
f 71/99/151 69/97/152 70/98/153 72/100/154
f 11/23/155 12/24/156 49/75/157 47/73/158
f 73/101/159 71/99/160 72/100/161 74/102/162
f 12/24/163 1/25/164 27/77/165 49/75/166
f 51/103/167 73/101/168 74/102/169 53/104/170
f 14/27/171 13/26/172 51/80/173 52/79/174
f 30/56/175 29/55/176 54/82/177 53/81/178
f 15/28/179 14/27/180 52/79/181 55/83/182
f 29/55/183 32/58/184 56/84/185 54/82/186
f 16/29/187 15/28/188 55/83/189 57/85/190
f 32/58/191 34/60/192 58/86/193 56/84/194
f 17/30/195 16/29/196 57/85/197 59/87/198
f 34/60/199 36/62/200 60/88/201 58/86/202
f 18/31/203 17/30/204 59/87/205 61/89/206
f 36/62/207 38/64/208 62/90/209 60/88/210
f 19/32/211 18/31/212 61/89/213 63/91/214
f 38/64/215 40/66/216 64/92/217 62/90/218
f 20/33/219 19/32/220 63/91/221 65/93/222
f 40/66/223 42/68/224 66/94/225 64/92/226
f 21/34/227 20/33/228 65/93/229 67/95/230
f 42/68/231 44/70/232 68/96/233 66/94/234
f 22/35/235 21/34/236 67/95/237 69/97/238
f 44/70/239 46/72/240 70/98/241 68/96/242
f 23/36/243 22/35/244 69/97/245 71/99/246
f 46/72/247 48/74/248 72/100/249 70/98/250
f 24/37/251 23/36/252 71/99/253 73/101/254
f 48/74/255 50/76/256 74/102/257 72/100/258
f 13/38/259 24/37/260 73/101/261 51/103/262
f 50/76/263 30/78/264 53/104/265 74/102/266
