# This file uses centimeters as units for non-parametric coordinates.

mtllib stove.mtl
g default
v 1.821342 -0.070025 0.496014
v 2.973387 -0.070025 0.496014
v 1.821342 0.056328 0.496014
v 2.973387 0.056328 0.496014
v 1.821342 0.056328 -0.496014
v 2.973387 0.056328 -0.496014
v 1.821342 -0.070025 -0.496014
v 2.973387 -0.070025 -0.496014
vt 0.375000 0.000000
vt 0.625000 0.000000
vt 0.375000 0.250000
vt 0.625000 0.250000
vt 0.375000 0.500000
vt 0.625000 0.500000
vt 0.375000 0.750000
vt 0.625000 0.750000
vt 0.375000 1.000000
vt 0.625000 1.000000
vt 0.875000 0.000000
vt 0.875000 0.250000
vt 0.125000 0.000000
vt 0.125000 0.250000
vn 0.000000 0.000000 1.000000
vn 0.000000 0.000000 1.000000
vn 0.000000 0.000000 1.000000
vn 0.000000 0.000000 1.000000
vn 0.000000 1.000000 0.000000
vn 0.000000 1.000000 0.000000
vn 0.000000 1.000000 0.000000
vn 0.000000 1.000000 0.000000
vn 0.000000 0.000000 -1.000000
vn 0.000000 0.000000 -1.000000
vn 0.000000 0.000000 -1.000000
vn 0.000000 0.000000 -1.000000
vn 0.000000 -1.000000 0.000000
vn 0.000000 -1.000000 0.000000
vn 0.000000 -1.000000 0.000000
vn 0.000000 -1.000000 0.000000
vn 1.000000 0.000000 0.000000
vn 1.000000 0.000000 0.000000
vn 1.000000 0.000000 0.000000
vn 1.000000 0.000000 0.000000
vn -1.000000 0.000000 0.000000
vn -1.000000 0.000000 0.000000
vn -1.000000 0.000000 0.000000
vn -1.000000 0.000000 0.000000
s off
g Bottom Stove
usemtl initialShadingGroup
f 1/1/1 2/2/2 4/4/3 3/3/4
f 3/3/5 4/4/6 6/6/7 5/5/8
f 5/5/9 6/6/10 8/8/11 7/7/12
f 7/7/13 8/8/14 2/10/15 1/9/16
f 2/2/17 8/11/18 6/12/19 4/4/20
f 7/13/21 1/1/22 3/3/23 5/14/24
g default
v 1.821342 1.187118 0.641152
v 2.973387 1.187118 0.641152
v 1.821342 1.283493 0.641152
v 2.973387 1.283493 0.641152
v 1.821342 1.283493 -0.576022
v 2.973387 1.283493 -0.576022
v 1.821342 1.187118 -0.576022
v 2.973387 1.187118 -0.576022
v 2.973387 1.283493 -0.475123
v 1.821342 1.283493 -0.475123
v 1.821342 1.187118 -0.475123
v 2.973387 1.187118 -0.475123
v 2.973387 1.385830 -0.475123
v 1.821342 1.385830 -0.475123
v 2.973387 1.385830 -0.576022
v 1.821342 1.385830 -0.576022
vt 0.375000 0.000000
vt 0.625000 0.000000
vt 0.375000 0.250000
vt 0.625000 0.250000
vt 0.375000 0.500000
vt 0.625000 0.500000
vt 0.375000 0.750000
vt 0.625000 0.750000
vt 0.375000 1.000000
vt 0.625000 1.000000
vt 0.875000 0.000000
vt 0.875000 0.250000
vt 0.125000 0.000000
vt 0.125000 0.250000
vt 0.625000 0.470076
vt 0.845076 0.250000
vt 0.154924 0.250000
vt 0.375000 0.470076
vt 0.154924 0.000000
vt 0.375000 0.779924
vt 0.625000 0.779924
vt 0.845076 0.000000
vt 0.375000 0.470076
vt 0.625000 0.470076
vt 0.625000 0.500000
vt 0.375000 0.500000
vn 0.000000 0.000000 1.000000
vn 0.000000 0.000000 1.000000
vn 0.000000 0.000000 1.000000
vn 0.000000 0.000000 1.000000
vn 0.000000 1.000000 0.000000
vn 0.000000 1.000000 0.000000
vn 0.000000 1.000000 0.000000
vn 0.000000 1.000000 0.000000
vn 0.000000 0.000000 -1.000000
vn 0.000000 0.000000 -1.000000
vn 0.000000 0.000000 -1.000000
vn 0.000000 0.000000 -1.000000
vn 0.000000 -1.000000 0.000000
vn 0.000000 -1.000000 0.000000
vn 0.000000 -1.000000 0.000000
vn 0.000000 -1.000000 0.000000
vn 1.000000 0.000000 0.000000
vn 1.000000 0.000000 0.000000
vn 1.000000 0.000000 0.000000
vn 1.000000 0.000000 0.000000
vn -1.000000 0.000000 0.000000
vn -1.000000 0.000000 0.000000
vn -1.000000 0.000000 0.000000
vn -1.000000 0.000000 0.000000
vn 0.000000 1.000000 0.000000
vn 0.000000 1.000000 0.000000
vn 0.000000 1.000000 0.000000
vn 0.000000 1.000000 0.000000
vn -1.000000 0.000000 0.000000
vn -1.000000 0.000000 0.000000
vn 0.000000 -1.000000 0.000000
vn 0.000000 -1.000000 0.000000
vn 1.000000 0.000000 0.000000
vn 1.000000 0.000000 0.000000
vn 0.000000 0.000000 1.000000
vn 0.000000 0.000000 1.000000
vn 0.000000 0.000000 1.000000
vn 0.000000 0.000000 1.000000
vn 1.000000 0.000000 0.000000
vn 1.000000 0.000000 0.000000
vn 1.000000 0.000000 0.000000
vn 1.000000 0.000000 0.000000
vn 0.000000 0.000000 -1.000000
vn 0.000000 0.000000 -1.000000
vn 0.000000 0.000000 -1.000000
vn 0.000000 0.000000 -1.000000
vn -1.000000 0.000000 0.000000
vn -1.000000 0.000000 0.000000
vn -1.000000 0.000000 0.000000
vn -1.000000 0.000000 0.000000
s off
g Stove Top
usemtl initialShadingGroup
f 9/15/25 10/16/26 12/18/27 11/17/28
f 11/17/29 12/18/30 17/29/31 18/32/32
f 13/19/33 14/20/34 16/22/35 15/21/36
s 1
f 19/34/37 20/35/38 10/24/39 9/23/40
s 2
f 10/16/41 20/36/42 17/30/43 12/18/44
s 3
f 19/33/45 9/15/46 11/17/47 18/31/48
s off
f 22/37/49 21/38/50 23/39/51 24/40/52
s 3
f 15/27/53 19/33/45 18/31/48 13/28/54
s 1
f 15/21/55 16/22/56 20/35/38 19/34/37
s 2
f 17/30/43 20/36/42 16/25/57 14/26/58
s off
f 18/32/59 17/29/60 21/38/61 22/37/62
f 17/29/63 14/20/64 23/39/65 21/38/66
f 14/20/67 13/19/68 24/40/69 23/39/70
f 13/19/71 18/32/72 22/37/73 24/40/74
g default
v 1.821342 0.037046 0.576023
v 2.973387 0.037046 0.576023
v 1.821342 1.189091 0.576023
v 2.973387 1.189091 0.576023
v 1.821342 1.189091 -0.576023
v 2.973387 1.189091 -0.576023
v 1.821342 0.037046 -0.576023
v 2.973387 0.037046 -0.576023
vt 0.375000 0.000000
vt 0.625000 0.000000
vt 0.375000 0.250000
vt 0.625000 0.250000
vt 0.375000 0.500000
vt 0.625000 0.500000
vt 0.375000 0.750000
vt 0.625000 0.750000
vt 0.375000 1.000000
vt 0.625000 1.000000
vt 0.875000 0.000000
vt 0.875000 0.250000
vt 0.125000 0.000000
vt 0.125000 0.250000
vn 0.000000 0.000000 1.000000
vn 0.000000 0.000000 1.000000
vn 0.000000 0.000000 1.000000
vn 0.000000 0.000000 1.000000
vn 0.000000 1.000000 0.000000
vn 0.000000 1.000000 0.000000
vn 0.000000 1.000000 0.000000
vn 0.000000 1.000000 0.000000
vn 0.000000 0.000000 -1.000000
vn 0.000000 0.000000 -1.000000
vn 0.000000 0.000000 -1.000000
vn 0.000000 0.000000 -1.000000
vn 0.000000 -1.000000 0.000000
vn 0.000000 -1.000000 0.000000
vn 0.000000 -1.000000 0.000000
vn 0.000000 -1.000000 0.000000
vn 1.000000 0.000000 0.000000
vn 1.000000 0.000000 0.000000
vn 1.000000 0.000000 0.000000
vn 1.000000 0.000000 0.000000
vn -1.000000 0.000000 0.000000
vn -1.000000 0.000000 0.000000
vn -1.000000 0.000000 0.000000
vn -1.000000 0.000000 0.000000
s off
g Stove Middle
usemtl initialShadingGroup
f 25/41/75 26/42/76 28/44/77 27/43/78
f 27/43/79 28/44/80 30/46/81 29/45/82
f 29/45/83 30/46/84 32/48/85 31/47/86
f 31/47/87 32/48/88 26/50/89 25/49/90
f 26/42/91 32/51/92 30/52/93 28/44/94
f 31/53/95 25/41/96 27/43/97 29/54/98
g default
v 2.775136 1.311327 0.360020
v 2.726710 1.311327 0.360020
v 2.702497 1.311327 0.403356
v 2.726710 1.311327 0.446691
v 2.775136 1.311327 0.446691
v 2.799350 1.311327 0.403356
v 2.768941 1.354501 0.371109
v 2.732905 1.354501 0.371109
v 2.714888 1.354501 0.403356
v 2.732905 1.354501 0.435602
v 2.768941 1.354501 0.435602
v 2.786959 1.354501 0.403356
v 2.750923 1.311327 0.403356
v 2.750923 1.354501 0.403356
vt 0.578125 0.020934
vt 0.421875 0.020934
vt 0.343750 0.156250
vt 0.421875 0.291566
vt 0.578125 0.291566
vt 0.656250 0.156250
vt 0.375000 0.312500
vt 0.416667 0.312500
vt 0.458333 0.312500
vt 0.500000 0.312500
vt 0.541667 0.312500
vt 0.583333 0.312500
vt 0.625000 0.312500
vt 0.375000 0.687500
vt 0.416667 0.687500
vt 0.458333 0.687500
vt 0.500000 0.687500
vt 0.541667 0.687500
vt 0.583333 0.687500
vt 0.625000 0.687500
vt 0.578125 0.708434
vt 0.421875 0.708434
vt 0.343750 0.843750
vt 0.421875 0.979066
vt 0.578125 0.979066
vt 0.656250 0.843750
vt 0.500000 0.156250
vt 0.500000 0.843750
vn 0.000000 0.248757 -0.968566
vn 0.000000 0.248757 -0.968566
vn 0.000000 0.248757 -0.968566
vn 0.000000 0.248757 -0.968566
vn -0.846800 0.243034 -0.473143
vn -0.846800 0.243034 -0.473143
vn -0.846800 0.243034 -0.473143
vn -0.846800 0.243034 -0.473143
vn -0.846800 0.243034 0.473142
vn -0.846800 0.243034 0.473142
vn -0.846800 0.243034 0.473142
vn -0.846800 0.243034 0.473142
vn 0.000000 0.248757 0.968566
vn 0.000000 0.248757 0.968566
vn 0.000000 0.248757 0.968566
vn 0.000000 0.248757 0.968566
vn 0.846800 0.243034 0.473143
vn 0.846800 0.243034 0.473143
vn 0.846800 0.243034 0.473143
vn 0.846800 0.243034 0.473143
vn 0.846800 0.243034 -0.473142
vn 0.846800 0.243034 -0.473142
vn 0.846800 0.243034 -0.473142
vn 0.846800 0.243034 -0.473142
vn 0.000000 -1.000000 0.000000
vn 0.000000 -1.000000 -0.000000
vn 0.000000 -1.000000 -0.000000
vn 0.000000 -1.000000 0.000000
vn 0.000000 -1.000000 -0.000000
vn 0.000000 -1.000000 -0.000000
vn 0.000000 -1.000000 -0.000000
vn 0.000000 1.000000 0.000000
vn 0.000000 1.000000 0.000000
vn 0.000000 1.000000 0.000000
vn 0.000000 1.000000 0.000000
vn 0.000000 1.000000 0.000000
vn 0.000000 1.000000 0.000000
vn 0.000000 1.000000 -0.000000
s off
g Stove Knob1 Stove
usemtl initialShadingGroup
f 33/61/99 34/62/100 40/69/101 39/68/102
f 34/62/103 35/63/104 41/70/105 40/69/106
f 35/63/107 36/64/108 42/71/109 41/70/110
f 36/64/111 37/65/112 43/72/113 42/71/114
f 37/65/115 38/66/116 44/73/117 43/72/118
f 38/66/119 33/67/120 39/74/121 44/73/122
s 1
f 34/56/123 33/55/124 45/81/125
f 35/57/126 34/56/123 45/81/125
f 36/58/127 35/57/126 45/81/125
f 37/59/128 36/58/127 45/81/125
f 38/60/129 37/59/128 45/81/125
f 33/55/124 38/60/129 45/81/125
s 2
f 39/79/130 40/78/131 46/82/132
f 40/78/131 41/77/133 46/82/132
f 41/77/133 42/76/134 46/82/132
f 42/76/134 43/75/135 46/82/132
f 43/75/135 44/80/136 46/82/132
f 44/80/136 39/79/130 46/82/132
g default
v 2.069350 1.311327 0.360020
v 2.020923 1.311327 0.360020
v 1.996710 1.311327 0.403356
v 2.020923 1.311327 0.446691
v 2.069349 1.311327 0.446691
v 2.093563 1.311327 0.403356
v 2.063154 1.354501 0.371109
v 2.027119 1.354501 0.371109
v 2.009101 1.354501 0.403356
v 2.027119 1.354501 0.435602
v 2.063154 1.354501 0.435602
v 2.081172 1.354501 0.403356
v 2.045136 1.311327 0.403356
v 2.045136 1.354501 0.403356
vt 0.578125 0.020934
vt 0.421875 0.020934
vt 0.343750 0.156250
vt 0.421875 0.291566
vt 0.578125 0.291566
vt 0.656250 0.156250
vt 0.375000 0.312500
vt 0.416667 0.312500
vt 0.458333 0.312500
vt 0.500000 0.312500
vt 0.541667 0.312500
vt 0.583333 0.312500
vt 0.625000 0.312500
vt 0.375000 0.687500
vt 0.416667 0.687500
vt 0.458333 0.687500
vt 0.500000 0.687500
vt 0.541667 0.687500
vt 0.583333 0.687500
vt 0.625000 0.687500
vt 0.578125 0.708434
vt 0.421875 0.708434
vt 0.343750 0.843750
vt 0.421875 0.979066
vt 0.578125 0.979066
vt 0.656250 0.843750
vt 0.500000 0.156250
vt 0.500000 0.843750
vn 0.000000 0.248757 -0.968566
vn 0.000000 0.248757 -0.968566
vn 0.000000 0.248757 -0.968566
vn 0.000000 0.248757 -0.968566
vn -0.846800 0.243034 -0.473143
vn -0.846800 0.243034 -0.473143
vn -0.846800 0.243034 -0.473143
vn -0.846800 0.243034 -0.473143
vn -0.846800 0.243034 0.473142
vn -0.846800 0.243034 0.473142
vn -0.846800 0.243034 0.473142
vn -0.846800 0.243034 0.473142
vn 0.000000 0.248757 0.968566
vn 0.000000 0.248757 0.968566
vn 0.000000 0.248757 0.968566
vn 0.000000 0.248757 0.968566
vn 0.846800 0.243034 0.473143
vn 0.846800 0.243034 0.473142
vn 0.846800 0.243034 0.473143
vn 0.846800 0.243034 0.473143
vn 0.846800 0.243034 -0.473142
vn 0.846800 0.243034 -0.473142
vn 0.846800 0.243034 -0.473142
vn 0.846800 0.243034 -0.473142
vn 0.000000 -1.000000 -0.000000
vn 0.000000 -1.000000 -0.000000
vn 0.000000 -1.000000 0.000000
vn 0.000000 -1.000000 0.000000
vn 0.000000 -1.000000 0.000000
vn 0.000000 -1.000000 0.000000
vn 0.000000 -1.000000 0.000000
vn 0.000000 1.000000 -0.000000
vn 0.000000 1.000000 -0.000000
vn 0.000000 1.000000 -0.000000
vn 0.000000 1.000000 0.000000
vn 0.000000 1.000000 -0.000000
vn 0.000000 1.000000 -0.000000
vn 0.000000 1.000000 -0.000000
s off
g Stove Stove Knob2
usemtl initialShadingGroup
f 47/89/137 48/90/138 54/97/139 53/96/140
f 48/90/141 49/91/142 55/98/143 54/97/144
f 49/91/145 50/92/146 56/99/147 55/98/148
f 50/92/149 51/93/150 57/100/151 56/99/152
f 51/93/153 52/94/154 58/101/155 57/100/156
f 52/94/157 47/95/158 53/102/159 58/101/160
s 1
f 48/84/161 47/83/162 59/109/163
f 49/85/164 48/84/161 59/109/163
f 50/86/165 49/85/164 59/109/163
f 51/87/166 50/86/165 59/109/163
f 52/88/167 51/87/166 59/109/163
f 47/83/162 52/88/167 59/109/163
s 2
f 53/107/168 54/106/169 60/110/170
f 54/106/169 55/105/171 60/110/170
f 55/105/171 56/104/172 60/110/170
f 56/104/172 57/103/173 60/110/170
f 57/103/173 58/108/174 60/110/170
f 58/108/174 53/107/168 60/110/170
g default
v 2.539350 1.311327 0.360020
v 2.490924 1.311327 0.360020
v 2.466710 1.311327 0.403356
v 2.490924 1.311327 0.446691
v 2.539350 1.311327 0.446691
v 2.563563 1.311327 0.403356
v 2.533155 1.354501 0.371109
v 2.497119 1.354501 0.371109
v 2.479101 1.354501 0.403356
v 2.497119 1.354501 0.435602
v 2.533155 1.354501 0.435602
v 2.551172 1.354501 0.403356
v 2.515137 1.311327 0.403356
v 2.515137 1.354501 0.403356
vt 0.578125 0.020934
vt 0.421875 0.020934
vt 0.343750 0.156250
vt 0.421875 0.291566
vt 0.578125 0.291566
vt 0.656250 0.156250
vt 0.375000 0.312500
vt 0.416667 0.312500
vt 0.458333 0.312500
vt 0.500000 0.312500
vt 0.541667 0.312500
vt 0.583333 0.312500
vt 0.625000 0.312500
vt 0.375000 0.687500
vt 0.416667 0.687500
vt 0.458333 0.687500
vt 0.500000 0.687500
vt 0.541667 0.687500
vt 0.583333 0.687500
vt 0.625000 0.687500
vt 0.578125 0.708434
vt 0.421875 0.708434
vt 0.343750 0.843750
vt 0.421875 0.979066
vt 0.578125 0.979066
vt 0.656250 0.843750
vt 0.500000 0.156250
vt 0.500000 0.843750
vn 0.000000 0.248757 -0.968566
vn 0.000000 0.248757 -0.968566
vn 0.000000 0.248757 -0.968566
vn 0.000000 0.248757 -0.968566
vn -0.846800 0.243034 -0.473143
vn -0.846800 0.243034 -0.473143
vn -0.846800 0.243034 -0.473143
vn -0.846800 0.243034 -0.473143
vn -0.846800 0.243034 0.473142
vn -0.846800 0.243034 0.473142
vn -0.846800 0.243034 0.473142
vn -0.846800 0.243034 0.473142
vn 0.000000 0.248757 0.968566
vn 0.000000 0.248757 0.968566
vn 0.000000 0.248757 0.968566
vn 0.000000 0.248757 0.968566
vn 0.846800 0.243034 0.473143
vn 0.846800 0.243034 0.473143
vn 0.846800 0.243034 0.473143
vn 0.846800 0.243034 0.473143
vn 0.846800 0.243034 -0.473143
vn 0.846800 0.243034 -0.473142
vn 0.846800 0.243034 -0.473142
vn 0.846800 0.243034 -0.473142
vn 0.000000 -1.000000 -0.000000
vn 0.000000 -1.000000 -0.000000
vn 0.000000 -1.000000 -0.000000
vn 0.000000 -1.000000 -0.000000
vn 0.000000 -1.000000 0.000000
vn 0.000000 -1.000000 0.000000
vn 0.000000 -1.000000 0.000000
vn 0.000000 1.000000 -0.000000
vn 0.000000 1.000000 -0.000000
vn 0.000000 1.000000 -0.000000
vn 0.000000 1.000000 0.000000
vn 0.000000 1.000000 -0.000000
vn 0.000000 1.000000 -0.000000
vn 0.000000 1.000000 0.000000
s off
g Stove Stove Knob4
usemtl initialShadingGroup
f 61/117/175 62/118/176 68/125/177 67/124/178
f 62/118/179 63/119/180 69/126/181 68/125/182
f 63/119/183 64/120/184 70/127/185 69/126/186
f 64/120/187 65/121/188 71/128/189 70/127/190
f 65/121/191 66/122/192 72/129/193 71/128/194
f 66/122/195 61/123/196 67/130/197 72/129/198
s 1
f 62/112/199 61/111/200 73/137/201
f 63/113/202 62/112/199 73/137/201
f 64/114/203 63/113/202 73/137/201
f 65/115/204 64/114/203 73/137/201
f 66/116/205 65/115/204 73/137/201
f 61/111/200 66/116/205 73/137/201
s 2
f 67/135/206 68/134/207 74/138/208
f 68/134/207 69/133/209 74/138/208
f 69/133/209 70/132/210 74/138/208
f 70/132/210 71/131/211 74/138/208
f 71/131/211 72/136/212 74/138/208
f 72/136/212 67/135/206 74/138/208
g default
v 2.310026 1.311327 0.360020
v 2.261600 1.311327 0.360020
v 2.237386 1.311327 0.403356
v 2.261600 1.311327 0.446691
v 2.310026 1.311327 0.446691
v 2.334239 1.311327 0.403356
v 2.303831 1.354501 0.371109
v 2.267795 1.354501 0.371109
v 2.249778 1.354501 0.403356
v 2.267795 1.354501 0.435602
v 2.303831 1.354501 0.435602
v 2.321848 1.354501 0.403356
v 2.285813 1.311327 0.403356
v 2.285813 1.354501 0.403356
vt 0.578125 0.020934
vt 0.421875 0.020934
vt 0.343750 0.156250
vt 0.421875 0.291566
vt 0.578125 0.291566
vt 0.656250 0.156250
vt 0.375000 0.312500
vt 0.416667 0.312500
vt 0.458333 0.312500
vt 0.500000 0.312500
vt 0.541667 0.312500
vt 0.583333 0.312500
vt 0.625000 0.312500
vt 0.375000 0.687500
vt 0.416667 0.687500
vt 0.458333 0.687500
vt 0.500000 0.687500
vt 0.541667 0.687500
vt 0.583333 0.687500
vt 0.625000 0.687500
vt 0.578125 0.708434
vt 0.421875 0.708434
vt 0.343750 0.843750
vt 0.421875 0.979066
vt 0.578125 0.979066
vt 0.656250 0.843750
vt 0.500000 0.156250
vt 0.500000 0.843750
vn 0.000000 0.248757 -0.968566
vn 0.000000 0.248757 -0.968566
vn 0.000000 0.248757 -0.968566
vn 0.000000 0.248757 -0.968566
vn -0.846800 0.243034 -0.473143
vn -0.846800 0.243034 -0.473143
vn -0.846800 0.243034 -0.473143
vn -0.846800 0.243034 -0.473143
vn -0.846800 0.243034 0.473142
vn -0.846800 0.243034 0.473142
vn -0.846800 0.243034 0.473142
vn -0.846800 0.243034 0.473142
vn 0.000000 0.248757 0.968566
vn 0.000000 0.248757 0.968566
vn 0.000000 0.248757 0.968566
vn 0.000000 0.248757 0.968566
vn 0.846800 0.243034 0.473143
vn 0.846800 0.243034 0.473143
vn 0.846800 0.243034 0.473143
vn 0.846800 0.243034 0.473143
vn 0.846800 0.243034 -0.473143
vn 0.846800 0.243034 -0.473142
vn 0.846800 0.243034 -0.473142
vn 0.846800 0.243034 -0.473142
vn 0.000000 -1.000000 -0.000000
vn 0.000000 -1.000000 -0.000000
vn 0.000000 -1.000000 0.000000
vn 0.000000 -1.000000 0.000000
vn 0.000000 -1.000000 0.000000
vn 0.000000 -1.000000 0.000000
vn 0.000000 -1.000000 0.000000
vn 0.000000 1.000000 -0.000000
vn 0.000000 1.000000 -0.000000
vn 0.000000 1.000000 -0.000000
vn 0.000000 1.000000 0.000000
vn 0.000000 1.000000 0.000000
vn 0.000000 1.000000 0.000000
vn 0.000000 1.000000 0.000000
s off
g Stove Stove Knob3
usemtl initialShadingGroup
f 75/145/213 76/146/214 82/153/215 81/152/216
f 76/146/217 77/147/218 83/154/219 82/153/220
f 77/147/221 78/148/222 84/155/223 83/154/224
f 78/148/225 79/149/226 85/156/227 84/155/228
f 79/149/229 80/150/230 86/157/231 85/156/232
f 80/150/233 75/151/234 81/158/235 86/157/236
s 1
f 76/140/237 75/139/238 87/165/239
f 77/141/240 76/140/237 87/165/239
f 78/142/241 77/141/240 87/165/239
f 79/143/242 78/142/241 87/165/239
f 80/144/243 79/143/242 87/165/239
f 75/139/238 80/144/243 87/165/239
s 2
f 81/163/244 82/162/245 88/166/246
f 82/162/245 83/161/247 88/166/246
f 83/161/247 84/160/248 88/166/246
f 84/160/248 85/159/249 88/166/246
f 85/159/249 86/164/250 88/166/246
f 86/164/250 81/163/244 88/166/246
g default
v 2.276275 1.335376 0.130661
v 2.521008 1.335376 0.130661
v 2.276275 1.352438 0.130661
v 2.521008 1.352438 0.130661
v 2.276275 1.352438 0.098159
v 2.521008 1.352438 0.098159
v 2.276275 1.335376 0.098159
v 2.521008 1.335376 0.098159
v 2.276275 1.335376 -0.184921
v 2.521008 1.335376 -0.184921
v 2.276275 1.352438 -0.184921
v 2.521008 1.352438 -0.184921
v 2.276275 1.352438 -0.217424
v 2.521008 1.352438 -0.217424
v 2.276275 1.335376 -0.217424
v 2.521008 1.335376 -0.217424
v 2.612662 1.335376 -0.124631
v 2.612662 1.335376 0.033851
v 2.612662 1.352438 -0.124631
v 2.612662 1.352438 0.033851
v 2.648577 1.352438 -0.124631
v 2.648577 1.352438 0.033851
v 2.648577 1.335376 -0.124631
v 2.648577 1.335376 0.033851
v 2.153978 1.335376 -0.124631
v 2.153978 1.335376 0.033851
v 2.153978 1.352438 -0.124631
v 2.153978 1.352438 0.033851
v 2.189893 1.352438 -0.124631
v 2.189893 1.352438 0.033851
v 2.189893 1.335376 -0.124631
v 2.189893 1.335376 0.033851
v 2.153978 1.335376 -0.353540
v 2.153978 1.335376 -0.281949
v 2.153978 1.352438 -0.353540
v 2.153978 1.352438 -0.281949
v 2.189893 1.352438 -0.353540
v 2.189893 1.352438 -0.281949
v 2.189893 1.335376 -0.353540
v 2.189893 1.335376 -0.281949
v 2.613100 1.335376 -0.355055
v 2.613100 1.335376 -0.280434
v 2.613100 1.352438 -0.355055
v 2.613100 1.352438 -0.280434
v 2.649015 1.352438 -0.355055
v 2.649015 1.352438 -0.280434
v 2.649015 1.335376 -0.355055
v 2.649015 1.335376 -0.280434
v 2.613100 1.335376 0.189654
v 2.613100 1.335376 0.264275
v 2.613100 1.352438 0.189654
v 2.613100 1.352438 0.264275
v 2.649015 1.352438 0.189654
v 2.649015 1.352438 0.264275
v 2.649015 1.335376 0.189654
v 2.649015 1.335376 0.264275
v 2.153978 1.335376 0.188635
v 2.153978 1.335376 0.260227
v 2.153978 1.352438 0.188635
v 2.153978 1.352438 0.260227
v 2.189893 1.352438 0.188635
v 2.189893 1.352438 0.260227
v 2.189893 1.335376 0.188635
v 2.189893 1.335376 0.260227
v 2.739487 1.335376 0.130661
v 2.850060 1.335376 0.130661
v 2.739487 1.352438 0.130661
v 2.850060 1.352438 0.130661
v 2.739487 1.352438 0.098159
v 2.850060 1.352438 0.098159
v 2.739487 1.335376 0.098159
v 2.850060 1.335376 0.098159
v 1.948623 1.335376 0.130661
v 2.059196 1.335376 0.130661
v 1.948623 1.352438 0.130661
v 2.059196 1.352438 0.130661
v 1.948623 1.352438 0.098159
v 2.059196 1.352438 0.098159
v 1.948623 1.335376 0.098159
v 2.059196 1.335376 0.098159
v 1.948623 1.335376 -0.184763
v 2.059196 1.335376 -0.184763
v 1.948623 1.352438 -0.184763
v 2.059196 1.352438 -0.184763
v 1.948623 1.352438 -0.217266
v 2.059196 1.352438 -0.217266
v 1.948623 1.335376 -0.217266
v 2.059196 1.335376 -0.217266
v 2.745086 1.335376 -0.186030
v 2.855660 1.335376 -0.186030
v 2.745086 1.352438 -0.186030
v 2.855660 1.352438 -0.186030
v 2.745086 1.352438 -0.218533
v 2.855660 1.352438 -0.218533
v 2.745086 1.335376 -0.218533
v 2.855660 1.335376 -0.218533
v 1.914242 1.309756 0.297323
v 2.400271 1.309756 0.297323
v 2.886300 1.309756 0.297323
v 1.914242 1.309756 -0.044773
v 2.400271 1.309756 -0.044773
v 2.886300 1.309756 -0.044773
v 1.914242 1.309756 -0.386869
v 2.400271 1.309756 -0.386869
v 2.886300 1.309756 -0.386869
v 1.944883 1.309756 0.269407
v 2.378171 1.309756 0.269407
v 2.378171 1.309756 -0.024773
v 1.944883 1.309756 -0.024773
v 2.422371 1.309756 0.269407
v 2.855659 1.309756 0.269407
v 2.855659 1.309756 -0.024773
v 2.422371 1.309756 -0.024773
v 1.944883 1.309756 -0.064773
v 2.378171 1.309756 -0.064773
v 2.378171 1.309756 -0.358954
v 1.944883 1.309756 -0.358954
v 2.422371 1.309756 -0.064773
v 2.855659 1.309756 -0.064773
v 2.855659 1.309756 -0.358954
v 2.422371 1.309756 -0.358954
v 1.941625 1.351559 0.272361
v 2.400271 1.351559 0.272361
v 2.379416 1.351559 0.246482
v 1.970540 1.351559 0.246482
v 2.400271 1.351559 -0.044773
v 2.379416 1.351559 -0.026233
v 1.941625 1.351559 -0.044773
v 1.970540 1.351559 -0.026233
v 2.858916 1.351559 0.272361
v 2.830002 1.351559 0.246482
v 2.421126 1.351559 0.246482
v 2.858916 1.351559 -0.044773
v 2.830002 1.351559 -0.026233
v 2.421126 1.351559 -0.026233
v 2.379416 1.351559 -0.063314
v 1.970540 1.351559 -0.063314
v 2.400271 1.351559 -0.361907
v 2.379416 1.351559 -0.336029
v 1.941625 1.351559 -0.361907
v 1.970540 1.351559 -0.336029
v 2.830002 1.351559 -0.063314
v 2.421126 1.351559 -0.063314
v 2.858916 1.351559 -0.361907
v 2.830002 1.351559 -0.336029
v 2.421126 1.351559 -0.336029
vt 0.375000 0.000000
vt 0.625000 0.000000
vt 0.375000 0.250000
vt 0.625000 0.250000
vt 0.375000 0.500000
vt 0.625000 0.500000
vt 0.375000 0.750000
vt 0.625000 0.750000
vt 0.375000 1.000000
vt 0.625000 1.000000
vt 0.875000 0.000000
vt 0.875000 0.250000
vt 0.125000 0.000000
vt 0.125000 0.250000
vt 0.375000 0.000000
vt 0.625000 0.000000
vt 0.625000 0.250000
vt 0.375000 0.250000
vt 0.625000 0.500000
vt 0.375000 0.500000
vt 0.625000 0.750000
vt 0.375000 0.750000
vt 0.625000 1.000000
vt 0.375000 1.000000
vt 0.875000 0.000000
vt 0.875000 0.250000
vt 0.125000 0.000000
vt 0.125000 0.250000
vt 0.375000 0.000000
vt 0.625000 0.000000
vt 0.625000 0.250000
vt 0.375000 0.250000
vt 0.625000 0.500000
vt 0.375000 0.500000
vt 0.625000 0.750000
vt 0.375000 0.750000
vt 0.625000 1.000000
vt 0.375000 1.000000
vt 0.875000 0.000000
vt 0.875000 0.250000
vt 0.125000 0.000000
vt 0.125000 0.250000
vt 0.375000 0.000000
vt 0.625000 0.000000
vt 0.625000 0.250000
vt 0.375000 0.250000
vt 0.625000 0.500000
vt 0.375000 0.500000
vt 0.625000 0.750000
vt 0.375000 0.750000
vt 0.625000 1.000000
vt 0.375000 1.000000
vt 0.875000 0.000000
vt 0.875000 0.250000
vt 0.125000 0.000000
vt 0.125000 0.250000
vt 0.375000 0.000000
vt 0.625000 0.000000
vt 0.625000 0.250000
vt 0.375000 0.250000
vt 0.625000 0.500000
vt 0.375000 0.500000
vt 0.625000 0.750000
vt 0.375000 0.750000
vt 0.625000 1.000000
vt 0.375000 1.000000
vt 0.875000 0.000000
vt 0.875000 0.250000
vt 0.125000 0.000000
vt 0.125000 0.250000
vt 0.375000 0.000000
vt 0.625000 0.000000
vt 0.625000 0.250000
vt 0.375000 0.250000
vt 0.625000 0.500000
vt 0.375000 0.500000
vt 0.625000 0.750000
vt 0.375000 0.750000
vt 0.625000 1.000000
vt 0.375000 1.000000
vt 0.875000 0.000000
vt 0.875000 0.250000
vt 0.125000 0.000000
vt 0.125000 0.250000
vt 0.375000 0.000000
vt 0.625000 0.000000
vt 0.625000 0.250000
vt 0.375000 0.250000
vt 0.625000 0.500000
vt 0.375000 0.500000
vt 0.625000 0.750000
vt 0.375000 0.750000
vt 0.625000 1.000000
vt 0.375000 1.000000
vt 0.875000 0.000000
vt 0.875000 0.250000
vt 0.125000 0.000000
vt 0.125000 0.250000
vt 0.375000 0.000000
vt 0.625000 0.000000
vt 0.625000 0.250000
vt 0.375000 0.250000
vt 0.625000 0.500000
vt 0.375000 0.500000
vt 0.625000 0.750000
vt 0.375000 0.750000
vt 0.625000 1.000000
vt 0.375000 1.000000
vt 0.875000 0.000000
vt 0.875000 0.250000
vt 0.125000 0.000000
vt 0.125000 0.250000
vt 0.375000 0.000000
vt 0.625000 0.000000
vt 0.625000 0.250000
vt 0.375000 0.250000
vt 0.625000 0.500000
vt 0.375000 0.500000
vt 0.625000 0.750000
vt 0.375000 0.750000
vt 0.625000 1.000000
vt 0.375000 1.000000
vt 0.875000 0.000000
vt 0.875000 0.250000
vt 0.125000 0.000000
vt 0.125000 0.250000
vt 0.375000 0.000000
vt 0.625000 0.000000
vt 0.625000 0.250000
vt 0.375000 0.250000
vt 0.625000 0.500000
vt 0.375000 0.500000
vt 0.625000 0.750000
vt 0.375000 0.750000
vt 0.625000 1.000000
vt 0.375000 1.000000
vt 0.875000 0.000000
vt 0.875000 0.250000
vt 0.125000 0.000000
vt 0.125000 0.250000
vt 0.375000 0.000000
vt 0.625000 0.000000
vt 0.625000 0.250000
vt 0.375000 0.250000
vt 0.625000 0.500000
vt 0.375000 0.500000
vt 0.625000 0.750000
vt 0.375000 0.750000
vt 0.625000 1.000000
vt 0.375000 1.000000
vt 0.875000 0.000000
vt 0.875000 0.250000
vt 0.125000 0.000000
vt 0.125000 0.250000
vt 0.375000 0.000000
vt 0.625000 0.000000
vt 0.625000 0.250000
vt 0.375000 0.250000
vt 0.625000 0.500000
vt 0.375000 0.500000
vt 0.625000 0.750000
vt 0.375000 0.750000
vt 0.625000 1.000000
vt 0.375000 1.000000
vt 0.875000 0.000000
vt 0.875000 0.250000
vt 0.125000 0.000000
vt 0.125000 0.250000
vt 0.000000 0.000000
vt 0.500000 0.000000
vt 0.500000 0.000000
vt 0.000000 0.000000
vt 0.500000 0.500000
vt 0.500000 0.500000
vt 0.000000 0.500000
vt 0.000000 0.500000
vt 1.000000 0.000000
vt 1.000000 0.000000
vt 0.500000 0.000000
vt 1.000000 0.500000
vt 1.000000 0.500000
vt 0.500000 0.500000
vt 0.500000 0.500000
vt 0.000000 0.500000
vt 0.500000 1.000000
vt 0.500000 1.000000
vt 0.000000 1.000000
vt 0.000000 1.000000
vt 1.000000 0.500000
vt 0.500000 0.500000
vt 1.000000 1.000000
vt 1.000000 1.000000
vt 0.500000 1.000000
vt 0.000000 0.000000
vt 0.500000 0.000000
vt 0.500000 0.000000
vt 0.000000 0.000000
vt 0.500000 0.500000
vt 0.500000 0.500000
vt 0.000000 0.500000
vt 0.000000 0.500000
vt 1.000000 0.000000
vt 1.000000 0.000000
vt 0.500000 0.000000
vt 1.000000 0.500000
vt 1.000000 0.500000
vt 0.500000 0.500000
vt 0.500000 0.500000
vt 0.000000 0.500000
vt 0.500000 1.000000
vt 0.500000 1.000000
vt 0.000000 1.000000
vt 0.000000 1.000000
vt 1.000000 0.500000
vt 0.500000 0.500000
vt 1.000000 1.000000
vt 1.000000 1.000000
vt 0.500000 1.000000
vt 0.000000 0.000000
vt 0.500000 0.000000
vt 0.500000 0.000000
vt 0.000000 0.000000
vt 0.500000 0.500000
vt 0.000000 0.500000
vt 0.000000 0.500000
vt 1.000000 0.000000
vt 1.000000 0.000000
vt 0.500000 0.000000
vt 1.000000 0.500000
vt 1.000000 0.500000
vt 0.500000 0.500000
vt 0.500000 0.500000
vt 0.000000 0.500000
vt 0.500000 1.000000
vt 0.500000 1.000000
vt 0.000000 1.000000
vt 0.000000 1.000000
vt 1.000000 0.500000
vt 0.500000 0.500000
vt 1.000000 1.000000
vt 1.000000 1.000000
vt 0.500000 1.000000
vn 0.000000 0.000000 1.000000
vn 0.000000 0.000000 1.000000
vn 0.000000 0.000000 1.000000
vn 0.000000 0.000000 1.000000
vn 0.000000 1.000000 0.000000
vn 0.000000 1.000000 0.000000
vn 0.000000 1.000000 0.000000
vn 0.000000 1.000000 0.000000
vn 0.000000 0.000000 -1.000000
vn 0.000000 0.000000 -1.000000
vn 0.000000 0.000000 -1.000000
vn 0.000000 0.000000 -1.000000
vn 0.000000 -1.000000 0.000000
vn 0.000000 -1.000000 0.000000
vn 0.000000 -1.000000 0.000000
vn 0.000000 -1.000000 0.000000
vn 1.000000 0.000000 0.000000
vn 1.000000 0.000000 0.000000
vn 1.000000 0.000000 0.000000
vn 1.000000 0.000000 0.000000
vn -1.000000 0.000000 0.000000
vn -1.000000 0.000000 0.000000
vn -1.000000 0.000000 0.000000
vn -1.000000 0.000000 0.000000
vn 0.000000 0.000000 1.000000
vn 0.000000 0.000000 1.000000
vn 0.000000 0.000000 1.000000
vn 0.000000 0.000000 1.000000
vn 0.000000 1.000000 0.000000
vn 0.000000 1.000000 0.000000
vn 0.000000 1.000000 0.000000
vn 0.000000 1.000000 0.000000
vn 0.000000 0.000000 -1.000000
vn 0.000000 0.000000 -1.000000
vn 0.000000 0.000000 -1.000000
vn 0.000000 0.000000 -1.000000
vn 0.000000 -1.000000 0.000000
vn 0.000000 -1.000000 0.000000
vn 0.000000 -1.000000 0.000000
vn 0.000000 -1.000000 0.000000
vn 1.000000 0.000000 0.000000
vn 1.000000 0.000000 0.000000
vn 1.000000 0.000000 0.000000
vn 1.000000 0.000000 0.000000
vn -1.000000 0.000000 0.000000
vn -1.000000 0.000000 0.000000
vn -1.000000 0.000000 0.000000
vn -1.000000 0.000000 0.000000
vn -1.000000 0.000000 0.000000
vn -1.000000 0.000000 0.000000
vn -1.000000 0.000000 0.000000
vn -1.000000 0.000000 0.000000
vn 0.000000 1.000000 0.000000
vn 0.000000 1.000000 0.000000
vn 0.000000 1.000000 0.000000
vn 0.000000 1.000000 0.000000
vn 1.000000 0.000000 0.000000
vn 1.000000 0.000000 0.000000
vn 1.000000 0.000000 0.000000
vn 1.000000 0.000000 0.000000
vn 0.000000 -1.000000 0.000000
vn 0.000000 -1.000000 0.000000
vn 0.000000 -1.000000 0.000000
vn 0.000000 -1.000000 0.000000
vn 0.000000 0.000000 1.000000
vn 0.000000 0.000000 1.000000
vn 0.000000 0.000000 1.000000
vn 0.000000 0.000000 1.000000
vn 0.000000 0.000000 -1.000000
vn 0.000000 0.000000 -1.000000
vn 0.000000 0.000000 -1.000000
vn 0.000000 0.000000 -1.000000
vn -1.000000 0.000000 0.000000
vn -1.000000 0.000000 0.000000
vn -1.000000 0.000000 0.000000
vn -1.000000 0.000000 0.000000
vn 0.000000 1.000000 0.000000
vn 0.000000 1.000000 0.000000
vn 0.000000 1.000000 0.000000
vn 0.000000 1.000000 0.000000
vn 1.000000 0.000000 0.000000
vn 1.000000 0.000000 0.000000
vn 1.000000 0.000000 0.000000
vn 1.000000 0.000000 0.000000
vn 0.000000 -1.000000 0.000000
vn 0.000000 -1.000000 0.000000
vn 0.000000 -1.000000 0.000000
vn 0.000000 -1.000000 0.000000
vn 0.000000 0.000000 1.000000
vn 0.000000 0.000000 1.000000
vn 0.000000 0.000000 1.000000
vn 0.000000 0.000000 1.000000
vn 0.000000 0.000000 -1.000000
vn 0.000000 0.000000 -1.000000
vn 0.000000 0.000000 -1.000000
vn 0.000000 0.000000 -1.000000
vn -1.000000 0.000000 0.000000
vn -1.000000 0.000000 0.000000
vn -1.000000 0.000000 0.000000
vn -1.000000 0.000000 0.000000
vn 0.000000 1.000000 0.000000
vn 0.000000 1.000000 0.000000
vn 0.000000 1.000000 0.000000
vn 0.000000 1.000000 0.000000
vn 1.000000 0.000000 0.000000
vn 1.000000 0.000000 0.000000
vn 1.000000 0.000000 0.000000
vn 1.000000 0.000000 0.000000
vn 0.000000 -1.000000 0.000000
vn 0.000000 -1.000000 0.000000
vn 0.000000 -1.000000 0.000000
vn 0.000000 -1.000000 0.000000
vn 0.000000 0.000000 1.000000
vn 0.000000 0.000000 1.000000
vn 0.000000 0.000000 1.000000
vn 0.000000 0.000000 1.000000
vn 0.000000 0.000000 -1.000000
vn 0.000000 0.000000 -1.000000
vn 0.000000 0.000000 -1.000000
vn 0.000000 0.000000 -1.000000
vn -1.000000 0.000000 0.000000
vn -1.000000 0.000000 0.000000
vn -1.000000 0.000000 0.000000
vn -1.000000 0.000000 0.000000
vn 0.000000 1.000000 0.000000
vn 0.000000 1.000000 0.000000
vn 0.000000 1.000000 0.000000
vn 0.000000 1.000000 0.000000
vn 1.000000 0.000000 0.000000
vn 1.000000 0.000000 0.000000
vn 1.000000 0.000000 0.000000
vn 1.000000 0.000000 0.000000
vn 0.000000 -1.000000 0.000000
vn 0.000000 -1.000000 0.000000
vn 0.000000 -1.000000 0.000000
vn 0.000000 -1.000000 0.000000
vn 0.000000 0.000000 1.000000
vn 0.000000 0.000000 1.000000
vn 0.000000 0.000000 1.000000
vn 0.000000 0.000000 1.000000
vn 0.000000 0.000000 -1.000000
vn 0.000000 0.000000 -1.000000
vn 0.000000 0.000000 -1.000000
vn 0.000000 0.000000 -1.000000
vn -1.000000 0.000000 0.000000
vn -1.000000 0.000000 0.000000
vn -1.000000 0.000000 0.000000
vn -1.000000 0.000000 0.000000
vn 0.000000 1.000000 0.000000
vn 0.000000 1.000000 0.000000
vn 0.000000 1.000000 0.000000
vn 0.000000 1.000000 0.000000
vn 1.000000 0.000000 0.000000
vn 1.000000 0.000000 0.000000
vn 1.000000 0.000000 0.000000
vn 1.000000 0.000000 0.000000
vn 0.000000 -1.000000 0.000000
vn 0.000000 -1.000000 0.000000
vn 0.000000 -1.000000 0.000000
vn 0.000000 -1.000000 0.000000
vn 0.000000 0.000000 1.000000
vn 0.000000 0.000000 1.000000
vn 0.000000 0.000000 1.000000
vn 0.000000 0.000000 1.000000
vn 0.000000 0.000000 -1.000000
vn 0.000000 0.000000 -1.000000
vn 0.000000 0.000000 -1.000000
vn 0.000000 0.000000 -1.000000
vn -1.000000 0.000000 0.000000
vn -1.000000 0.000000 0.000000
vn -1.000000 0.000000 0.000000
vn -1.000000 0.000000 0.000000
vn 0.000000 1.000000 0.000000
vn 0.000000 1.000000 0.000000
vn 0.000000 1.000000 0.000000
vn 0.000000 1.000000 0.000000
vn 1.000000 0.000000 0.000000
vn 1.000000 0.000000 0.000000
vn 1.000000 0.000000 0.000000
vn 1.000000 0.000000 0.000000
vn 0.000000 -1.000000 0.000000
vn 0.000000 -1.000000 0.000000
vn 0.000000 -1.000000 0.000000
vn 0.000000 -1.000000 0.000000
vn 0.000000 0.000000 1.000000
vn 0.000000 0.000000 1.000000
vn 0.000000 0.000000 1.000000
vn 0.000000 0.000000 1.000000
vn 0.000000 0.000000 -1.000000
vn 0.000000 0.000000 -1.000000
vn 0.000000 0.000000 -1.000000
vn 0.000000 0.000000 -1.000000
vn 0.000000 0.000000 1.000000
vn 0.000000 0.000000 1.000000
vn 0.000000 0.000000 1.000000
vn 0.000000 0.000000 1.000000
vn 0.000000 1.000000 0.000000
vn 0.000000 1.000000 0.000000
vn 0.000000 1.000000 0.000000
vn 0.000000 1.000000 0.000000
vn 0.000000 0.000000 -1.000000
vn 0.000000 0.000000 -1.000000
vn 0.000000 0.000000 -1.000000
vn 0.000000 0.000000 -1.000000
vn 0.000000 -1.000000 0.000000
vn 0.000000 -1.000000 0.000000
vn 0.000000 -1.000000 0.000000
vn 0.000000 -1.000000 0.000000
vn 1.000000 0.000000 0.000000
vn 1.000000 0.000000 0.000000
vn 1.000000 0.000000 0.000000
vn 1.000000 0.000000 0.000000
vn -1.000000 0.000000 0.000000
vn -1.000000 0.000000 0.000000
vn -1.000000 0.000000 0.000000
vn -1.000000 0.000000 0.000000
vn 0.000000 0.000000 1.000000
vn 0.000000 0.000000 1.000000
vn 0.000000 0.000000 1.000000
vn 0.000000 0.000000 1.000000
vn 0.000000 1.000000 0.000000
vn 0.000000 1.000000 0.000000
vn 0.000000 1.000000 0.000000
vn 0.000000 1.000000 0.000000
vn 0.000000 0.000000 -1.000000
vn 0.000000 0.000000 -1.000000
vn 0.000000 0.000000 -1.000000
vn 0.000000 0.000000 -1.000000
vn 0.000000 -1.000000 0.000000
vn 0.000000 -1.000000 0.000000
vn 0.000000 -1.000000 0.000000
vn 0.000000 -1.000000 0.000000
vn 1.000000 0.000000 0.000000
vn 1.000000 0.000000 0.000000
vn 1.000000 0.000000 0.000000
vn 1.000000 0.000000 0.000000
vn -1.000000 0.000000 0.000000
vn -1.000000 0.000000 0.000000
vn -1.000000 0.000000 0.000000
vn -1.000000 0.000000 0.000000
vn 0.000000 0.000000 1.000000
vn 0.000000 0.000000 1.000000
vn 0.000000 0.000000 1.000000
vn 0.000000 0.000000 1.000000
vn 0.000000 1.000000 0.000000
vn 0.000000 1.000000 0.000000
vn 0.000000 1.000000 0.000000
vn 0.000000 1.000000 0.000000
vn 0.000000 0.000000 -1.000000
vn 0.000000 0.000000 -1.000000
vn 0.000000 0.000000 -1.000000
vn 0.000000 0.000000 -1.000000
vn 0.000000 -1.000000 0.000000
vn 0.000000 -1.000000 0.000000
vn 0.000000 -1.000000 0.000000
vn 0.000000 -1.000000 0.000000
vn 1.000000 0.000000 0.000000
vn 1.000000 0.000000 0.000000
vn 1.000000 0.000000 0.000000
vn 1.000000 0.000000 0.000000
vn -1.000000 0.000000 0.000000
vn -1.000000 0.000000 0.000000
vn -1.000000 0.000000 0.000000
vn -1.000000 0.000000 0.000000
vn 0.000000 0.000000 1.000000
vn 0.000000 0.000000 1.000000
vn 0.000000 0.000000 1.000000
vn 0.000000 0.000000 1.000000
vn 0.000000 1.000000 0.000000
vn 0.000000 1.000000 0.000000
vn 0.000000 1.000000 0.000000
vn 0.000000 1.000000 0.000000
vn 0.000000 0.000000 -1.000000
vn 0.000000 0.000000 -1.000000
vn 0.000000 0.000000 -1.000000
vn 0.000000 0.000000 -1.000000
vn 0.000000 -1.000000 0.000000
vn 0.000000 -1.000000 0.000000
vn 0.000000 -1.000000 0.000000
vn 0.000000 -1.000000 0.000000
vn 1.000000 0.000000 0.000000
vn 1.000000 0.000000 0.000000
vn 1.000000 0.000000 0.000000
vn 1.000000 0.000000 0.000000
vn -1.000000 0.000000 0.000000
vn -1.000000 0.000000 0.000000
vn -1.000000 0.000000 0.000000
vn -1.000000 0.000000 0.000000
vn 0.000000 1.000000 -0.000004
vn 0.000000 1.000000 -0.000004
vn 0.000000 1.000000 -0.000004
vn 0.000000 1.000000 -0.000004
vn 0.000000 1.000000 -0.000001
vn 0.000000 1.000000 -0.000001
vn 0.000000 1.000000 0.000000
vn 0.000000 1.000000 0.000000
vn 0.000000 1.000000 0.000001
vn 0.000000 1.000000 0.000008
vn 0.000000 1.000000 0.000008
vn 0.000000 1.000000 0.000000
vn 0.000000 1.000000 0.000000
vn 0.000000 1.000000 0.000000
vn 0.000000 1.000000 0.000000
vn 0.000000 1.000000 -0.000001
vn 0.000000 1.000000 -0.000001
vn 0.000000 1.000000 -0.000001
vn 0.000000 1.000000 -0.000001
vn 0.000000 1.000000 -0.000002
vn 0.000000 1.000000 -0.000002
vn 0.000000 1.000000 -0.000003
vn 0.000000 1.000000 -0.000003
vn 0.000000 1.000000 0.000001
vn 0.000000 1.000000 0.000003
vn 0.000000 1.000000 0.000003
vn 0.000000 1.000000 0.000003
vn 0.000000 1.000000 -0.000002
vn 0.000000 1.000000 -0.000002
vn 0.000000 1.000000 -0.000001
vn 0.000000 1.000000 -0.000001
vn 0.000000 1.000000 -0.000001
vn 0.000000 1.000000 0.000002
vn 0.000000 1.000000 0.000002
vn 0.000000 1.000000 0.000002
vn 0.000000 1.000000 0.000002
vn 0.000000 1.000000 0.000002
vn 0.000000 1.000000 0.000001
vn 0.000000 1.000000 0.000000
vn 0.000000 1.000000 0.000000
vn 0.000000 1.000000 0.000001
vn 0.000000 1.000000 0.000001
vn 0.000000 1.000000 0.000001
vn 0.000000 1.000000 0.000000
vn 0.000000 1.000000 0.000000
vn 0.000000 1.000000 0.000000
vn 0.000000 1.000000 0.000000
vn 0.000000 1.000000 0.000002
vn 0.000000 1.000000 0.000002
vn 0.000000 1.000000 0.000003
vn 0.000000 1.000000 0.000000
vn 0.000000 1.000000 -0.000003
vn 0.000000 1.000000 -0.000003
vn 0.000000 1.000000 0.000001
vn 0.000000 1.000000 0.000001
vn 0.000000 1.000000 -0.000001
vn 0.000000 1.000000 0.000000
vn 0.000000 1.000000 0.000000
vn 0.000000 1.000000 0.000000
vn 0.000000 1.000000 0.000003
vn 0.000000 1.000000 0.000003
vn 0.000000 1.000000 -0.000002
vn 0.000000 1.000000 -0.000002
vn 0.000000 1.000000 -0.000002
vn 0.000000 0.512682 0.858578
vn 0.000000 0.512682 0.858578
vn 0.000000 0.512682 0.858578
vn 0.000000 0.512682 0.858578
vn 0.000000 -0.480844 -0.876806
vn 0.000000 -0.480844 -0.876806
vn 0.000000 -0.480844 -0.876806
vn 0.000000 -0.480844 -0.876806
vn -0.999557 0.029766 0.000000
vn -0.999557 0.029766 0.000000
vn -0.999557 0.029766 0.000000
vn -0.999557 0.029766 0.000000
vn 0.000000 0.034889 0.999391
vn 0.000000 0.034889 0.999391
vn 0.000000 0.034889 0.999391
vn 0.000000 0.034889 0.999391
vn -0.836504 0.547961 0.000000
vn -0.836504 0.547961 0.000000
vn -0.836504 0.547961 0.000000
vn -0.836504 0.547961 0.000000
vn 0.852271 -0.523100 0.000000
vn 0.852271 -0.523100 0.000000
vn 0.852271 -0.523100 0.000000
vn 0.852271 -0.523100 0.000000
vn 0.000000 0.512683 0.858578
vn 0.000000 0.512683 0.858578
vn 0.000000 0.512683 0.858578
vn 0.000000 0.512683 0.858578
vn 0.000000 -0.480843 -0.876806
vn 0.000000 -0.480843 -0.876807
vn 0.000000 -0.480843 -0.876807
vn 0.000000 -0.480843 -0.876806
vn 0.836503 0.547962 0.000000
vn 0.836503 0.547962 0.000000
vn 0.836503 0.547962 0.000000
vn 0.836503 0.547962 0.000000
vn -0.852273 -0.523097 0.000000
vn -0.852273 -0.523097 0.000000
vn -0.852273 -0.523097 0.000000
vn -0.852273 -0.523097 0.000000
vn 0.000000 0.034889 0.999391
vn 0.000000 0.034889 0.999391
vn 0.000000 0.034889 0.999391
vn 0.000000 0.034889 0.999391
vn 0.999557 0.029777 0.000000
vn 0.999557 0.029777 0.000000
vn 0.999557 0.029777 0.000000
vn 0.999557 0.029777 0.000000
vn 0.000000 0.034889 -0.999391
vn 0.000000 0.034889 -0.999391
vn 0.000000 0.034889 -0.999391
vn 0.000000 0.034889 -0.999391
vn -0.999557 0.029775 0.000000
vn -0.999557 0.029775 0.000000
vn -0.999557 0.029775 0.000000
vn -0.999557 0.029775 0.000000
vn 0.000000 0.512683 -0.858578
vn 0.000000 0.512683 -0.858578
vn 0.000000 0.512683 -0.858578
vn 0.000000 0.512683 -0.858578
vn 0.000000 -0.480845 0.876806
vn 0.000000 -0.480845 0.876806
vn 0.000000 -0.480845 0.876806
vn 0.000000 -0.480845 0.876806
vn -0.836502 0.547964 0.000000
vn -0.836502 0.547964 0.000000
vn -0.836502 0.547964 0.000000
vn -0.836502 0.547964 0.000000
vn 0.852271 -0.523101 0.000000
vn 0.852271 -0.523101 0.000000
vn 0.852271 -0.523101 0.000000
vn 0.852271 -0.523101 0.000000
vn 0.000000 0.034889 -0.999391
vn 0.000000 0.034889 -0.999391
vn 0.000000 0.034889 -0.999391
vn 0.000000 0.034889 -0.999391
vn 0.836502 0.547963 0.000000
vn 0.836502 0.547963 0.000000
vn 0.836502 0.547963 0.000000
vn 0.836502 0.547963 0.000000
vn -0.852276 -0.523092 0.000000
vn -0.852276 -0.523092 0.000000
vn -0.852276 -0.523092 0.000000
vn -0.852276 -0.523092 0.000000
vn 0.000000 0.512682 -0.858578
vn 0.000000 0.512683 -0.858578
vn 0.000000 0.512683 -0.858578
vn 0.000000 0.512682 -0.858578
vn 0.000000 -0.480843 0.876806
vn 0.000000 -0.480844 0.876807
vn 0.000000 -0.480844 0.876806
vn 0.000000 -0.480843 0.876806
vn 0.999557 0.029774 0.000000
vn 0.999557 0.029774 0.000000
vn 0.999557 0.029774 0.000000
vn 0.999557 0.029774 0.000000
s off
g Stove Stove Grid
usemtl initialShadingGroup
f 89/167/251 90/168/252 92/170/253 91/169/254
f 91/169/255 92/170/256 94/172/257 93/171/258
f 93/171/259 94/172/260 96/174/261 95/173/262
f 95/173/263 96/174/264 90/176/265 89/175/266
f 90/168/267 96/177/268 94/178/269 92/170/270
f 95/179/271 89/167/272 91/169/273 93/180/274
f 97/181/275 98/182/276 100/183/277 99/184/278
f 99/184/279 100/183/280 102/185/281 101/186/282
f 101/186/283 102/185/284 104/187/285 103/188/286
f 103/188/287 104/187/288 98/189/289 97/190/290
f 98/182/291 104/191/292 102/192/293 100/183/294
f 103/193/295 97/181/296 99/184/297 101/194/298
f 105/195/299 106/196/300 108/197/301 107/198/302
f 107/198/303 108/197/304 110/199/305 109/200/306
f 109/200/307 110/199/308 112/201/309 111/202/310
f 111/202/311 112/201/312 106/203/313 105/204/314
f 106/196/315 112/205/316 110/206/317 108/197/318
f 111/207/319 105/195/320 107/198/321 109/208/322
f 113/209/323 114/210/324 116/211/325 115/212/326
f 115/212/327 116/211/328 118/213/329 117/214/330
f 117/214/331 118/213/332 120/215/333 119/216/334
f 119/216/335 120/215/336 114/217/337 113/218/338
f 114/210/339 120/219/340 118/220/341 116/211/342
f 119/221/343 113/209/344 115/212/345 117/222/346
f 121/223/347 122/224/348 124/225/349 123/226/350
f 123/226/351 124/225/352 126/227/353 125/228/354
f 125/228/355 126/227/356 128/229/357 127/230/358
f 127/230/359 128/229/360 122/231/361 121/232/362
f 122/224/363 128/233/364 126/234/365 124/225/366
f 127/235/367 121/223/368 123/226/369 125/236/370
f 129/237/371 130/238/372 132/239/373 131/240/374
f 131/240/375 132/239/376 134/241/377 133/242/378
f 133/242/379 134/241/380 136/243/381 135/244/382
f 135/244/383 136/243/384 130/245/385 129/246/386
f 130/238/387 136/247/388 134/248/389 132/239/390
f 135/249/391 129/237/392 131/240/393 133/250/394
f 137/251/395 138/252/396 140/253/397 139/254/398
f 139/254/399 140/253/400 142/255/401 141/256/402
f 141/256/403 142/255/404 144/257/405 143/258/406
f 143/258/407 144/257/408 138/259/409 137/260/410
f 138/252/411 144/261/412 142/262/413 140/253/414
f 143/263/415 137/251/416 139/254/417 141/264/418
f 145/265/419 146/266/420 148/267/421 147/268/422
f 147/268/423 148/267/424 150/269/425 149/270/426
f 149/270/427 150/269/428 152/271/429 151/272/430
f 151/272/431 152/271/432 146/273/433 145/274/434
f 146/266/435 152/275/436 150/276/437 148/267/438
f 151/277/439 145/265/440 147/268/441 149/278/442
f 153/279/443 154/280/444 156/281/445 155/282/446
f 155/282/447 156/281/448 158/283/449 157/284/450
f 157/284/451 158/283/452 160/285/453 159/286/454
f 159/286/455 160/285/456 154/287/457 153/288/458
f 154/280/459 160/289/460 158/290/461 156/281/462
f 159/291/463 153/279/464 155/282/465 157/292/466
f 161/293/467 162/294/468 164/295/469 163/296/470
f 163/296/471 164/295/472 166/297/473 165/298/474
f 165/298/475 166/297/476 168/299/477 167/300/478
f 167/300/479 168/299/480 162/301/481 161/302/482
f 162/294/483 168/303/484 166/304/485 164/295/486
f 167/305/487 161/293/488 163/296/489 165/306/490
f 169/307/491 170/308/492 172/309/493 171/310/494
f 171/310/495 172/309/496 174/311/497 173/312/498
f 173/312/499 174/311/500 176/313/501 175/314/502
f 175/314/503 176/313/504 170/315/505 169/316/506
f 170/308/507 176/317/508 174/318/509 172/309/510
f 175/319/511 169/307/512 171/310/513 173/320/514
f 177/321/515 178/322/516 180/323/517 179/324/518
f 179/324/519 180/323/520 182/325/521 181/326/522
f 181/326/523 182/325/524 184/327/525 183/328/526
f 183/328/527 184/327/528 178/329/529 177/330/530
f 178/322/531 184/331/532 182/332/533 180/323/534
f 183/333/535 177/321/536 179/324/537 181/334/538
f 210/335/539 211/336/540 212/337/541 213/338/542
s 1
f 211/336/543 214/339/544 215/340/545 212/337/546
f 214/339/544 216/341/547 217/342/548 215/340/549
s off
f 216/341/550 210/335/551 213/338/552 217/342/553
s 1
f 211/336/543 218/343/554 219/344/555 220/345/556
f 218/343/554 221/346/557 222/347/558 219/344/555
f 221/346/557 214/339/544 223/348/559 222/347/558
f 214/339/544 211/336/543 220/345/556 223/348/559
f 216/341/547 214/339/544 224/349/560 225/350/561
f 214/339/544 226/351/562 227/352/563 224/349/560
f 226/351/562 228/353/564 229/354/565 227/352/563
f 228/353/564 216/341/547 225/350/561 229/354/565
f 214/339/544 221/346/557 230/355/566 231/356/567
f 221/346/557 232/357/568 233/358/569 230/355/566
f 232/357/568 226/351/562 234/359/570 233/358/569
f 226/351/562 214/339/544 231/356/567 234/359/570
s off
f 185/360/571 186/361/572 195/362/573 194/363/574
s 4
f 186/361/575 189/364/576 196/365/577 195/362/578
f 189/364/576 188/366/579 197/367/580 196/365/581
s off
f 188/366/582 185/360/583 194/363/584 197/367/585
s 4
f 186/361/575 187/368/586 199/369/587 198/370/588
f 187/368/586 190/371/589 200/372/590 199/369/587
f 190/371/589 189/364/576 201/373/591 200/372/590
f 189/364/576 186/361/575 198/370/588 201/373/591
f 188/366/579 189/364/576 203/374/592 202/375/593
f 189/364/576 192/376/594 204/377/595 203/374/592
f 192/376/594 191/378/596 205/379/597 204/377/595
f 191/378/596 188/366/579 202/375/593 205/379/597
f 189/364/576 190/371/589 207/380/598 206/381/599
f 190/371/589 193/382/600 208/383/601 207/380/598
f 193/382/600 192/376/594 209/384/602 208/383/601
f 192/376/594 189/364/576 206/381/599 209/384/602
s off
f 185/385/603 186/386/604 211/336/605 210/335/606
f 195/387/607 194/388/608 213/338/609 212/337/610
f 196/389/611 195/387/612 212/337/613 215/340/614
f 197/390/615 196/389/616 215/340/617 217/342/618
f 188/391/619 185/385/620 210/335/621 216/341/622
f 194/388/623 197/390/624 217/342/625 213/338/626
f 186/386/627 187/392/628 218/343/629 211/336/630
f 199/393/631 198/394/632 220/345/633 219/344/634
f 187/392/635 190/395/636 221/346/637 218/343/638
f 200/396/639 199/393/640 219/344/641 222/347/642
f 201/397/643 200/396/644 222/347/645 223/348/646
f 198/394/647 201/397/648 223/348/649 220/345/650
f 203/398/651 202/399/652 225/350/653 224/349/654
f 204/400/655 203/398/656 224/349/657 227/352/658
f 192/401/659 191/402/660 228/353/661 226/351/662
f 205/403/663 204/400/664 227/352/665 229/354/666
f 191/402/667 188/391/668 216/341/669 228/353/670
f 202/399/671 205/403/672 229/354/673 225/350/674
f 207/404/675 206/405/676 231/356/677 230/355/678
f 190/395/679 193/406/680 232/357/681 221/346/682
f 208/407/683 207/404/684 230/355/685 233/358/686
f 193/406/687 192/401/688 226/351/689 232/357/690
f 209/408/691 208/407/692 233/358/693 234/359/694
f 206/405/695 209/408/696 234/359/697 231/356/698
g default
v 1.847593 1.274579 0.532407
v 2.952580 1.274579 0.532407
v 1.874175 1.312423 0.508865
v 2.925998 1.312423 0.508865
v 1.874175 1.312423 -0.422687
v 2.925998 1.312423 -0.422687
v 1.847593 1.274579 -0.446230
v 2.952580 1.274579 -0.446230
vt 0.375000 0.000000
vt 0.625000 0.000000
vt 0.375000 0.250000
vt 0.625000 0.250000
vt 0.375000 0.500000
vt 0.625000 0.500000
vt 0.375000 0.750000
vt 0.625000 0.750000
vt 0.375000 1.000000
vt 0.625000 1.000000
vt 0.875000 0.000000
vt 0.875000 0.250000
vt 0.125000 0.000000
vt 0.125000 0.250000
vn 0.000000 0.528230 0.849101
vn 0.000000 0.528231 0.849101
vn 0.000000 0.528231 0.849101
vn 0.000000 0.528231 0.849101
vn 0.000000 1.000000 0.000000
vn 0.000000 1.000000 0.000000
vn 0.000000 1.000000 0.000000
vn 0.000000 1.000000 0.000000
vn 0.000000 0.528231 -0.849101
vn 0.000000 0.528231 -0.849101
vn 0.000000 0.528231 -0.849101
vn 0.000000 0.528230 -0.849101
vn 0.000000 -1.000000 0.000000
vn 0.000000 -1.000000 0.000000
vn 0.000000 -1.000000 0.000000
vn 0.000000 -1.000000 0.000000
vn 0.818299 0.574793 0.000000
vn 0.818299 0.574793 0.000000
vn 0.818299 0.574793 0.000000
vn 0.818299 0.574793 0.000000
vn -0.818299 0.574793 0.000000
vn -0.818299 0.574793 0.000000
vn -0.818299 0.574793 0.000000
vn -0.818299 0.574793 0.000000
s off
g Stove Stove Pad
usemtl initialShadingGroup
f 235/409/699 236/410/700 238/412/701 237/411/702
f 237/411/703 238/412/704 240/414/705 239/413/706
f 239/413/707 240/414/708 242/416/709 241/415/710
f 241/415/711 242/416/712 236/418/713 235/417/714
f 236/410/715 242/419/716 240/420/717 238/412/718
f 241/421/719 235/409/720 237/411/721 239/422/722
g default
v 2.213842 1.314540 -0.266142
v 2.131313 1.314540 -0.266142
v 2.090048 1.314540 -0.203718
v 2.131313 1.314540 -0.141294
v 2.213842 1.314540 -0.141294
v 2.255107 1.314540 -0.203718
v 2.203284 1.351288 -0.250169
v 2.141871 1.351288 -0.250169
v 2.111165 1.351288 -0.203718
v 2.141871 1.351288 -0.157267
v 2.203284 1.351288 -0.157267
v 2.233990 1.351288 -0.203718
v 2.172577 1.314540 -0.203718
v 2.172577 1.351288 -0.203718
vt 0.578125 0.020934
vt 0.421875 0.020934
vt 0.343750 0.156250
vt 0.421875 0.291566
vt 0.578125 0.291566
vt 0.656250 0.156250
vt 0.375000 0.312500
vt 0.416667 0.312500
vt 0.458333 0.312500
vt 0.500000 0.312500
vt 0.541667 0.312500
vt 0.583333 0.312500
vt 0.625000 0.312500
vt 0.375000 0.687500
vt 0.416667 0.687500
vt 0.458333 0.687500
vt 0.500000 0.687500
vt 0.541667 0.687500
vt 0.583333 0.687500
vt 0.625000 0.687500
vt 0.578125 0.708434
vt 0.421875 0.708434
vt 0.343750 0.843750
vt 0.421875 0.979066
vt 0.578125 0.979066
vt 0.656250 0.843750
vt 0.500000 0.156250
vt 0.500000 0.843750
vn 0.000000 0.398624 -0.917114
vn 0.000000 0.398624 -0.917114
vn 0.000000 0.398624 -0.917114
vn 0.000000 0.398624 -0.917114
vn -0.752243 0.432272 -0.497264
vn -0.752243 0.432272 -0.497264
vn -0.752243 0.432272 -0.497264
vn -0.752243 0.432272 -0.497264
vn -0.752243 0.432272 0.497264
vn -0.752243 0.432272 0.497264
vn -0.752243 0.432272 0.497264
vn -0.752243 0.432272 0.497264
vn -0.000000 0.398624 0.917114
vn -0.000000 0.398624 0.917114
vn -0.000000 0.398624 0.917114
vn -0.000000 0.398624 0.917114
vn 0.752243 0.432272 0.497264
vn 0.752243 0.432272 0.497264
vn 0.752243 0.432272 0.497264
vn 0.752243 0.432272 0.497264
vn 0.752243 0.432272 -0.497264
vn 0.752243 0.432272 -0.497264
vn 0.752243 0.432272 -0.497264
vn 0.752243 0.432272 -0.497264
vn 0.000000 -1.000000 0.000000
vn 0.000000 -1.000000 0.000000
vn 0.000000 -1.000000 -0.000000
vn 0.000000 -1.000000 0.000000
vn 0.000000 -1.000000 0.000000
vn 0.000000 -1.000000 -0.000000
vn 0.000000 -1.000000 0.000000
vn 0.000000 1.000000 0.000000
vn 0.000000 1.000000 -0.000000
vn 0.000000 1.000000 0.000000
vn 0.000000 1.000000 0.000000
vn 0.000000 1.000000 0.000000
vn 0.000000 1.000000 -0.000000
vn 0.000000 1.000000 -0.000000
s off
g Stove Stove HeatingPad1
usemtl initialShadingGroup
f 243/429/723 244/430/724 250/437/725 249/436/726
f 244/430/727 245/431/728 251/438/729 250/437/730
f 245/431/731 246/432/732 252/439/733 251/438/734
f 246/432/735 247/433/736 253/440/737 252/439/738
f 247/433/739 248/434/740 254/441/741 253/440/742
f 248/434/743 243/435/744 249/442/745 254/441/746
s 1
f 244/424/747 243/423/748 255/449/749
f 245/425/750 244/424/747 255/449/749
f 246/426/751 245/425/750 255/449/749
f 247/427/752 246/426/751 255/449/749
f 248/428/753 247/427/752 255/449/749
f 243/423/748 248/428/753 255/449/749
s 2
f 249/447/754 250/446/755 256/450/756
f 250/446/755 251/445/757 256/450/756
f 251/445/757 252/444/758 256/450/756
f 252/444/758 253/443/759 256/450/756
f 253/443/759 254/448/760 256/450/756
f 254/448/760 249/447/754 256/450/756
g default
v 2.669877 1.314540 -0.266142
v 2.587347 1.314540 -0.266142
v 2.546083 1.314540 -0.203718
v 2.587347 1.314540 -0.141294
v 2.669877 1.314540 -0.141294
v 2.711142 1.314540 -0.203718
v 2.659318 1.351288 -0.250169
v 2.597906 1.351288 -0.250169
v 2.567200 1.351288 -0.203718
v 2.597906 1.351288 -0.157267
v 2.659318 1.351288 -0.157267
v 2.690024 1.351288 -0.203718
v 2.628612 1.314540 -0.203718
v 2.628612 1.351288 -0.203718
vt 0.578125 0.020934
vt 0.421875 0.020934
vt 0.343750 0.156250
vt 0.421875 0.291566
vt 0.578125 0.291566
vt 0.656250 0.156250
vt 0.375000 0.312500
vt 0.416667 0.312500
vt 0.458333 0.312500
vt 0.500000 0.312500
vt 0.541667 0.312500
vt 0.583333 0.312500
vt 0.625000 0.312500
vt 0.375000 0.687500
vt 0.416667 0.687500
vt 0.458333 0.687500
vt 0.500000 0.687500
vt 0.541667 0.687500
vt 0.583333 0.687500
vt 0.625000 0.687500
vt 0.578125 0.708434
vt 0.421875 0.708434
vt 0.343750 0.843750
vt 0.421875 0.979066
vt 0.578125 0.979066
vt 0.656250 0.843750
vt 0.500000 0.156250
vt 0.500000 0.843750
vn 0.000000 0.398624 -0.917114
vn 0.000000 0.398624 -0.917114
vn 0.000000 0.398624 -0.917114
vn 0.000000 0.398624 -0.917114
vn -0.752243 0.432272 -0.497264
vn -0.752243 0.432272 -0.497264
vn -0.752243 0.432272 -0.497264
vn -0.752243 0.432272 -0.497264
vn -0.752243 0.432272 0.497264
vn -0.752243 0.432272 0.497264
vn -0.752243 0.432272 0.497264
vn -0.752243 0.432272 0.497264
vn -0.000000 0.398624 0.917114
vn -0.000000 0.398624 0.917114
vn -0.000000 0.398624 0.917114
vn -0.000000 0.398624 0.917114
vn 0.752243 0.432272 0.497264
vn 0.752243 0.432272 0.497264
vn 0.752243 0.432272 0.497264
vn 0.752243 0.432272 0.497264
vn 0.752243 0.432272 -0.497264
vn 0.752243 0.432272 -0.497264
vn 0.752243 0.432272 -0.497264
vn 0.752243 0.432272 -0.497264
vn 0.000000 -1.000000 0.000000
vn 0.000000 -1.000000 0.000000
vn 0.000000 -1.000000 0.000000
vn 0.000000 -1.000000 0.000000
vn 0.000000 -1.000000 0.000000
vn 0.000000 -1.000000 0.000000
vn 0.000000 -1.000000 0.000000
vn 0.000000 1.000000 0.000000
vn 0.000000 1.000000 0.000000
vn 0.000000 1.000000 0.000000
vn 0.000000 1.000000 0.000000
vn 0.000000 1.000000 0.000000
vn 0.000000 1.000000 0.000000
vn 0.000000 1.000000 0.000000
s off
g Stove Stove HeatingPad2
usemtl initialShadingGroup
f 257/457/761 258/458/762 264/465/763 263/464/764
f 258/458/765 259/459/766 265/466/767 264/465/768
f 259/459/769 260/460/770 266/467/771 265/466/772
f 260/460/773 261/461/774 267/468/775 266/467/776
f 261/461/777 262/462/778 268/469/779 267/468/780
f 262/462/781 257/463/782 263/470/783 268/469/784
s 1
f 258/452/785 257/451/786 269/477/787
f 259/453/788 258/452/785 269/477/787
f 260/454/789 259/453/788 269/477/787
f 261/455/790 260/454/789 269/477/787
f 262/456/791 261/455/790 269/477/787
f 257/451/786 262/456/791 269/477/787
s 2
f 263/475/792 264/474/793 270/478/794
f 264/474/793 265/473/795 270/478/794
f 265/473/795 266/472/796 270/478/794
f 266/472/796 267/471/797 270/478/794
f 267/471/797 268/476/798 270/478/794
f 268/476/798 263/475/792 270/478/794
g default
v 2.215088 1.314540 0.050537
v 2.132559 1.314540 0.050537
v 2.091294 1.314540 0.112961
v 2.132559 1.314540 0.175385
v 2.215088 1.314540 0.175385
v 2.256353 1.314540 0.112961
v 2.204530 1.351288 0.066510
v 2.143117 1.351288 0.066510
v 2.112411 1.351288 0.112961
v 2.143117 1.351288 0.159412
v 2.204530 1.351288 0.159412
v 2.235236 1.351288 0.112961
v 2.173823 1.314540 0.112961
v 2.173823 1.351288 0.112961
vt 0.578125 0.020934
vt 0.421875 0.020934
vt 0.343750 0.156250
vt 0.421875 0.291566
vt 0.578125 0.291566
vt 0.656250 0.156250
vt 0.375000 0.312500
vt 0.416667 0.312500
vt 0.458333 0.312500
vt 0.500000 0.312500
vt 0.541667 0.312500
vt 0.583333 0.312500
vt 0.625000 0.312500
vt 0.375000 0.687500
vt 0.416667 0.687500
vt 0.458333 0.687500
vt 0.500000 0.687500
vt 0.541667 0.687500
vt 0.583333 0.687500
vt 0.625000 0.687500
vt 0.578125 0.708434
vt 0.421875 0.708434
vt 0.343750 0.843750
vt 0.421875 0.979066
vt 0.578125 0.979066
vt 0.656250 0.843750
vt 0.500000 0.156250
vt 0.500000 0.843750
vn 0.000000 0.398624 -0.917114
vn 0.000000 0.398624 -0.917114
vn 0.000000 0.398624 -0.917114
vn 0.000000 0.398624 -0.917114
vn -0.752243 0.432272 -0.497264
vn -0.752243 0.432272 -0.497264
vn -0.752243 0.432272 -0.497264
vn -0.752243 0.432272 -0.497264
vn -0.752243 0.432272 0.497264
vn -0.752243 0.432272 0.497264
vn -0.752243 0.432272 0.497264
vn -0.752243 0.432272 0.497264
vn -0.000000 0.398624 0.917114
vn -0.000000 0.398624 0.917114
vn -0.000000 0.398624 0.917114
vn -0.000000 0.398624 0.917114
vn 0.752243 0.432272 0.497264
vn 0.752243 0.432272 0.497264
vn 0.752243 0.432272 0.497264
vn 0.752243 0.432272 0.497264
vn 0.752243 0.432272 -0.497264
vn 0.752243 0.432272 -0.497264
vn 0.752243 0.432272 -0.497264
vn 0.752243 0.432272 -0.497264
vn 0.000000 -1.000000 0.000000
vn 0.000000 -1.000000 0.000000
vn 0.000000 -1.000000 0.000000
vn 0.000000 -1.000000 0.000000
vn 0.000000 -1.000000 0.000000
vn 0.000000 -1.000000 0.000000
vn 0.000000 -1.000000 0.000000
vn 0.000000 1.000000 0.000000
vn 0.000000 1.000000 0.000000
vn 0.000000 1.000000 0.000000
vn 0.000000 1.000000 0.000000
vn 0.000000 1.000000 0.000000
vn 0.000000 1.000000 0.000000
vn 0.000000 1.000000 0.000000
s off
g Stove Stove HeatingPad3
usemtl initialShadingGroup
f 271/485/799 272/486/800 278/493/801 277/492/802
f 272/486/803 273/487/804 279/494/805 278/493/806
f 273/487/807 274/488/808 280/495/809 279/494/810
f 274/488/811 275/489/812 281/496/813 280/495/814
f 275/489/815 276/490/816 282/497/817 281/496/818
f 276/490/819 271/491/820 277/498/821 282/497/822
s 1
f 272/480/823 271/479/824 283/505/825
f 273/481/826 272/480/823 283/505/825
f 274/482/827 273/481/826 283/505/825
f 275/483/828 274/482/827 283/505/825
f 276/484/829 275/483/828 283/505/825
f 271/479/824 276/484/829 283/505/825
s 2
f 277/503/830 278/502/831 284/506/832
f 278/502/831 279/501/833 284/506/832
f 279/501/833 280/500/834 284/506/832
f 280/500/834 281/499/835 284/506/832
f 281/499/835 282/504/836 284/506/832
f 282/504/836 277/503/830 284/506/832
g default
v 2.666139 1.314540 0.050537
v 2.583609 1.314540 0.050537
v 2.542345 1.314540 0.112961
v 2.583609 1.314540 0.175385
v 2.666139 1.314540 0.175385
v 2.707404 1.314540 0.112961
v 2.655580 1.351288 0.066510
v 2.594168 1.351288 0.066510
v 2.563462 1.351288 0.112961
v 2.594168 1.351288 0.159412
v 2.655580 1.351288 0.159412
v 2.686286 1.351288 0.112961
v 2.624874 1.314540 0.112961
v 2.624874 1.351288 0.112961
vt 0.578125 0.020934
vt 0.421875 0.020934
vt 0.343750 0.156250
vt 0.421875 0.291566
vt 0.578125 0.291566
vt 0.656250 0.156250
vt 0.375000 0.312500
vt 0.416667 0.312500
vt 0.458333 0.312500
vt 0.500000 0.312500
vt 0.541667 0.312500
vt 0.583333 0.312500
vt 0.625000 0.312500
vt 0.375000 0.687500
vt 0.416667 0.687500
vt 0.458333 0.687500
vt 0.500000 0.687500
vt 0.541667 0.687500
vt 0.583333 0.687500
vt 0.625000 0.687500
vt 0.578125 0.708434
vt 0.421875 0.708434
vt 0.343750 0.843750
vt 0.421875 0.979066
vt 0.578125 0.979066
vt 0.656250 0.843750
vt 0.500000 0.156250
vt 0.500000 0.843750
vn 0.000000 0.398624 -0.917114
vn 0.000000 0.398624 -0.917114
vn 0.000000 0.398624 -0.917114
vn 0.000000 0.398624 -0.917114
vn -0.752243 0.432272 -0.497264
vn -0.752243 0.432272 -0.497264
vn -0.752243 0.432272 -0.497264
vn -0.752243 0.432272 -0.497264
vn -0.752243 0.432272 0.497264
vn -0.752243 0.432272 0.497264
vn -0.752243 0.432272 0.497264
vn -0.752243 0.432272 0.497264
vn -0.000000 0.398624 0.917114
vn -0.000000 0.398624 0.917114
vn -0.000000 0.398624 0.917114
vn -0.000000 0.398624 0.917114
vn 0.752243 0.432272 0.497264
vn 0.752243 0.432272 0.497264
vn 0.752243 0.432272 0.497264
vn 0.752243 0.432272 0.497264
vn 0.752243 0.432272 -0.497264
vn 0.752243 0.432272 -0.497264
vn 0.752243 0.432272 -0.497264
vn 0.752243 0.432272 -0.497264
vn 0.000000 -1.000000 0.000000
vn 0.000000 -1.000000 0.000000
vn 0.000000 -1.000000 0.000000
vn 0.000000 -1.000000 -0.000000
vn 0.000000 -1.000000 -0.000000
vn 0.000000 -1.000000 0.000000
vn 0.000000 -1.000000 0.000000
vn 0.000000 1.000000 0.000000
vn 0.000000 1.000000 0.000000
vn 0.000000 1.000000 0.000000
vn 0.000000 1.000000 0.000000
vn 0.000000 1.000000 -0.000000
vn 0.000000 1.000000 0.000000
vn 0.000000 1.000000 0.000000
s off
g Stove Stove HeatingPad4
usemtl initialShadingGroup
f 285/513/837 286/514/838 292/521/839 291/520/840
f 286/514/841 287/515/842 293/522/843 292/521/844
f 287/515/845 288/516/846 294/523/847 293/522/848
f 288/516/849 289/517/850 295/524/851 294/523/852
f 289/517/853 290/518/854 296/525/855 295/524/856
f 290/518/857 285/519/858 291/526/859 296/525/860
s 1
f 286/508/861 285/507/862 297/533/863
f 287/509/864 286/508/861 297/533/863
f 288/510/865 287/509/864 297/533/863
f 289/511/866 288/510/865 297/533/863
f 290/512/867 289/511/866 297/533/863
f 285/507/862 290/512/867 297/533/863
s 2
f 291/531/868 292/530/869 298/534/870
f 292/530/869 293/529/871 298/534/870
f 293/529/871 294/528/872 298/534/870
f 294/528/872 295/527/873 298/534/870
f 295/527/873 296/532/874 298/534/870
f 296/532/874 291/531/868 298/534/870
